<?xml version="1.0" encoding="UTF-8"?>
<svg id="Capa_1" xmlns="http://www.w3.org/2000/svg" version="1.1" xmlns:xlink="http://www.w3.org/1999/xlink" viewBox="0 0 298.81 246">
  <!-- Generator: Adobe Illustrator 30.6.0, SVG Export Plug-In . SVG Version: 2.1.4 Build 109)  -->
  <defs>
    <style>
      .st0 {
        fill: url(#Degradado_sin_nombre_6);
      }

      .st1 {
        font-family: Arial-BoldMT, Arial;
        font-size: 25.55px;
        font-weight: 700;
        isolation: isolate;
      }

      .st1, .st2 {
        fill: #f5f7fb;
      }

      .st3 {
        stroke-opacity: .9;
        stroke-width: 3px;
      }

      .st3, .st2 {
        stroke: #a48cff;
      }

      .st3, .st4, .st5 {
        fill: none;
      }

      .st6 {
        fill: #171033;
      }

      .st7 {
        fill: url(#Degradado_sin_nombre_61);
      }

      .st2 {
        stroke-width: 1.5px;
      }

      .st4 {
        stroke: #64dfff;
      }

      .st4, .st5 {
        stroke-width: 2px;
      }

      .st8 {
        fill: url(#Degradado_sin_nombre);
        stroke: #bc5e6c;
        stroke-width: 6px;
      }

      .st9 {
        fill: url(#Degradado_sin_nombre_62);
      }

      .st5 {
        stroke: #171033;
        stroke-linecap: round;
        stroke-miterlimit: 5.8;
      }

      .st10 {
        fill: url(#Degradado_sin_nombre_9);
      }

      .st11 {
        fill: #64dfff;
      }
    </style>
    <linearGradient id="Degradado_sin_nombre" data-name="Degradado sin nombre" x1="-788.13" y1="644.29" x2="-568.13" y2="424.29" gradientTransform="translate(193501.3609 158952) scale(240 -240)" gradientUnits="userSpaceOnUse">
      <stop offset="0" stop-color="#30161c"/>
      <stop offset="1" stop-color="#1d1728"/>
    </linearGradient>
    <radialGradient id="Degradado_sin_nombre_9" data-name="Degradado sin nombre 9" cx="159.36" cy="140.33" fx="159.36" fy="140.33" r="114.54" gradientTransform="translate(0 248) scale(1 -1)" gradientUnits="userSpaceOnUse">
      <stop offset="0" stop-color="#a24bff" stop-opacity=".55"/>
      <stop offset=".55" stop-color="#7a2bd6" stop-opacity=".22"/>
      <stop offset="1" stop-color="#7a2bd6" stop-opacity="0"/>
    </radialGradient>
    <linearGradient id="Degradado_sin_nombre_6" data-name="Degradado sin nombre 6" x1="-892.79" y1="972.62" x2="-813.11" y2="892.94" gradientTransform="translate(-1920.4803 33.2799) rotate(135) scale(1.45 -1.45)" gradientUnits="userSpaceOnUse">
      <stop offset="0" stop-color="#fff"/>
      <stop offset="1" stop-color="#d9def0"/>
    </linearGradient>
    <linearGradient id="Degradado_sin_nombre_61" data-name="Degradado sin nombre 6" x1="-908.24" y1="960.19" x2="-830.41" y2="882.35" gradientTransform="translate(-1283.4435 -1398.141) scale(-1.45 1.45)" xlink:href="#Degradado_sin_nombre_6"/>
    <linearGradient id="Degradado_sin_nombre_62" data-name="Degradado sin nombre 6" x1="-913.21" y1="957.69" x2="-837.09" y2="881.57" gradientTransform="translate(-1291.1027 -1394.9684) scale(-1.45 1.45)" xlink:href="#Degradado_sin_nombre_6"/>
  </defs>
  <rect class="st8" x="29.4" y="3" width="240" height="240" rx="58" ry="58"/>
  <g>
    <g>
      <g>
        <rect class="st3" x="81.07" y="43.46" width="139.77" height="141.57" rx="2" ry="2"/>
        <circle class="st11" cx="199.22" cy="160.25" r="4.48"/>
        <rect class="st2" x="73.91" y="36.29" width="14.34" height="14.34"/>
        <rect class="st4" x="69.43" y="31.81" width="23.3" height="23.3"/>
        <rect class="st10" y=".59" width="298.81" height="229.09" rx="22" ry="22"/>
        <rect class="st2" x="213.68" y="36.29" width="14.34" height="14.34"/>
        <rect class="st2" x="73.91" y="177.86" width="14.34" height="14.34"/>
        <rect class="st2" x="213.68" y="177.86" width="14.34" height="14.34"/>
        <g>
          <path class="st0" d="M196.38,157.01l-21.45-29.62-29.62-54.13-11.74,11.74,6.64,15.83-13.13-5.51-2.7-1.13-11.74,11.74,54.13,29.62,29.62,21.45Z"/>
          <rect class="st7" x="100.64" y="79.32" width="50.55" height="14.44" rx="6.22" ry="6.22" transform="translate(-24.31 114.38) rotate(-45)"/>
          <rect class="st9" x="102.37" y="73.83" width="31.77" height="10.11" rx="4.36" ry="4.36" transform="translate(-21.14 106.72) rotate(-45)"/>
          <circle class="st6" cx="165.25" cy="125.87" r="2.79"/>
          <line class="st5" x1="165.24" y1="125.86" x2="138.12" y2="98.69"/>
        </g>
      </g>
      <text class="st1" transform="translate(69.43 216.6)"><tspan x="0" y="0">Mask Unlinker</tspan></text>
    </g>
    <polygon points="134.87 87.76 126.71 95.79 141.9 102.65 134.87 87.76"/>
  </g>
</svg>