<?xml version="1.0" encoding="UTF-8"?>
<svg id="Capa_1" xmlns="http://www.w3.org/2000/svg" version="1.1" xmlns:xlink="http://www.w3.org/1999/xlink" viewBox="0 0 1200 460">
  <!-- Generator: Adobe Illustrator 30.6.0, SVG Export Plug-In . SVG Version: 2.1.4 Build 109)  -->
  <defs>
    <style>
      .st0 {
        stroke: url(#Degradado_sin_nombre_6);
      }

      .st0, .st1, .st2, .st3, .st4 {
        fill: none;
      }

      .st0, .st1, .st3 {
        stroke-linecap: round;
        stroke-linejoin: round;
      }

      .st0, .st3 {
        stroke-width: 5px;
      }

      .st1 {
        opacity: .65;
        stroke: url(#Degradado_sin_nombre_4);
        stroke-width: 2.8px;
      }

      .st1, .st5, .st6, .st7, .st8, .st9 {
        isolation: isolate;
      }

      .st10 {
        fill: url(#dots);
      }

      .st3 {
        stroke: url(#Degradado_sin_nombre_3);
      }

      .st4 {
        stroke: #364157;
        stroke-width: 2px;
      }

      .st6 {
        fill: #fff;
        opacity: .08;
      }

      .st7 {
        fill: #f5f7fb;
        font-size: 68.79px;
      }

      .st7, .st9 {
        font-family: Arial-BoldMT, Arial;
        font-weight: 700;
      }

      .st11 {
        fill: url(#Degradado_sin_nombre);
      }

      .st8 {
        fill: #111823;
        opacity: .88;
      }

      .st9 {
        fill: #b8a3ff;
        font-size: 129.93px;
      }

      .st12 {
        fill: #18202b;
        stroke: url(#Degradado_sin_nombre_2);
        stroke-width: 3px;
      }
    </style>
    <linearGradient id="Degradado_sin_nombre" data-name="Degradado sin nombre" x1="-717.4" y1="1.34" x2="-716.4" y2="2.34" gradientTransform="translate(860882 -618) scale(1200 460)" gradientUnits="userSpaceOnUse">
      <stop offset="0" stop-color="#0b0f16"/>
      <stop offset=".58" stop-color="#15192a"/>
      <stop offset="1" stop-color="#241b43"/>
    </linearGradient>
    <pattern id="dots" x="0" y="0" width="24" height="24" patternTransform="translate(46 16842)" patternUnits="userSpaceOnUse" viewBox="0 0 24 24">
      <g>
        <rect class="st2" width="24" height="24"/>
        <g>
          <rect class="st2" width="24" height="24"/>
          <circle class="st6" cx="2" cy="2" r="1"/>
        </g>
      </g>
    </pattern>
    <linearGradient id="Degradado_sin_nombre_2" data-name="Degradado sin nombre 2" x1="563.57" y1="744.62" x2="1107.8" y2="905.21" gradientTransform="translate(0 -618)" gradientUnits="userSpaceOnUse">
      <stop offset="0" stop-color="#baff2b"/>
      <stop offset="1" stop-color="#65deff"/>
    </linearGradient>
    <linearGradient id="Degradado_sin_nombre_3" data-name="Degradado sin nombre 3" x1="792.99" y1="745.26" x2="1116.39" y2="840.68" gradientTransform="translate(0 -618)" gradientUnits="userSpaceOnUse">
      <stop offset="0" stop-color="#baff2b"/>
      <stop offset="1" stop-color="#65deff"/>
    </linearGradient>
    <linearGradient id="Degradado_sin_nombre_4" data-name="Degradado sin nombre 4" x1="689.89" y1="775.4" x2="1215.08" y2="930.37" gradientTransform="translate(0 -618)" gradientUnits="userSpaceOnUse">
      <stop offset="0" stop-color="#baff2b"/>
      <stop offset="1" stop-color="#65deff"/>
    </linearGradient>
    <linearGradient id="Degradado_sin_nombre_6" data-name="Degradado sin nombre 6" x1="842.79" y1="777.28" x2="1112.14" y2="856.77" gradientTransform="translate(0 -618)" gradientUnits="userSpaceOnUse">
      <stop offset="0" stop-color="#baff2b"/>
      <stop offset="1" stop-color="#65deff"/>
    </linearGradient>
  </defs>
  <rect class="st11" width="1200" height="460" rx="28" ry="28"/>
  <rect class="st10" width="1200" height="460" rx="28" ry="28"/>
  <rect class="st4" x="1" y="1" width="1198" height="458" rx="27" ry="27"/>
  <g>
    <path class="st12" d="M600.54,116.45h454.82c48.7,0,88.18,39.48,88.18,88.18h0c0,48.7-39.48,88.18-88.18,88.18h-454.82c-48.7,0-88.18-39.48-88.18-88.18h0c0-48.7,39.48-88.18,88.18-88.18Z"/>
    <path class="st8" d="M600.54,153.58h454.82c28.2,0,51.05,22.85,51.05,51.05h0c0,28.2-22.85,51.05-51.05,51.05h-454.82c-28.2,0-51.05-22.85-51.05-51.05h0c0-28.2,22.85-51.05,51.05-51.05Z"/>
    <path class="st3" d="M1031.55,170.37c15.33,0,27.76,12.2,27.76,27.27s-12.42,27.29-27.74,27.29c-7.37,0-14.43-2.88-19.63-8-10.84-10.65-10.84-27.93,0-38.58,5.2-5.12,12.26-7.98,19.62-7.98h0Z"/>
    <path class="st1" d="M735.56,204.63h228.84"/>
    <path class="st0" d="M1054.03,216.01l22.43,17.85"/>
  </g>
  <g class="st5">
    <g class="st5">
      <text class="st9" transform="translate(566.78 255.69)"><tspan x="0" y="0">FX</tspan></text>
    </g>
  </g>
  <g class="st5">
    <g class="st5">
      <g class="st5">
        <text class="st7" transform="translate(630.65 360.05)"><tspan x="0" y="0">EffectDocks</tspan></text>
      </g>
    </g>
  </g>
</svg>