<?xml version="1.0" encoding="UTF-8"?>
<svg id="Capa_1" xmlns="http://www.w3.org/2000/svg" version="1.1" xmlns:xlink="http://www.w3.org/1999/xlink" viewBox="0 0 1200 460">
  <!-- Generator: Adobe Illustrator 30.6.0, SVG Export Plug-In . SVG Version: 2.1.4 Build 109)  -->
  <defs>
    <style>
      .st0 {
        opacity: .65;
        stroke: url(#Degradado_sin_nombre_52);
        stroke-width: 2.8px;
      }

      .st0, .st1, .st2, .st3, .st4, .st5 {
        fill: none;
      }

      .st0, .st6, .st7, .st8, .st9, .st10 {
        isolation: isolate;
      }

      .st0, .st3, .st4, .st5 {
        stroke-linecap: round;
        stroke-linejoin: round;
      }

      .st11 {
        fill: url(#dots);
      }

      .st6 {
        fill: #f5f7fb;
        font-size: 48.25px;
      }

      .st6, .st8 {
        font-family: Arial-BoldMT, Arial;
        font-weight: 700;
      }

      .st2 {
        stroke: #364157;
        stroke-width: 2px;
      }

      .st8 {
        fill: #b8a3ff;
        font-size: 91.13px;
      }

      .st9 {
        fill: #fff;
        opacity: .08;
      }

      .st12 {
        fill: #18202b;
        stroke: url(#Degradado_sin_nombre_5);
        stroke-width: 3px;
      }

      .st3 {
        stroke: url(#Degradado_sin_nombre_54);
      }

      .st13 {
        fill: url(#Degradado_sin_nombre);
      }

      .st4 {
        stroke: url(#Degradado_sin_nombre_51);
      }

      .st10 {
        fill: #111823;
        opacity: .88;
      }

      .st5 {
        stroke: url(#Degradado_sin_nombre_53);
        stroke-width: 13px;
      }
    </style>
    <linearGradient id="Degradado_sin_nombre" data-name="Degradado sin nombre" x1="-358.7" y1="770.33" x2="-357.7" y2="769.33" gradientTransform="translate(430441 354351) scale(1200 -460)" gradientUnits="userSpaceOnUse">
      <stop offset="0" stop-color="#0b0f16"/>
      <stop offset=".58" stop-color="#15192a"/>
      <stop offset="1" stop-color="#241b43"/>
    </linearGradient>
    <pattern id="dots" x="0" y="0" width="24" height="24" patternTransform="translate(23 -15281) scale(1 -1)" patternUnits="userSpaceOnUse" viewBox="0 0 24 24">
      <g>
        <rect class="st1" width="24" height="24"/>
        <circle class="st9" cx="2" cy="22" r="1"/>
      </g>
    </pattern>
    <linearGradient id="Degradado_sin_nombre_5" data-name="Degradado sin nombre 5" x1="604.56" y1="286.83" x2="987.08" y2="173.96" gradientTransform="translate(0 462) scale(1 -1)" gradientUnits="userSpaceOnUse">
      <stop offset="0" stop-color="#baff2b"/>
      <stop offset="1" stop-color="#65deff"/>
    </linearGradient>
    <linearGradient id="Degradado_sin_nombre_51" data-name="Degradado sin nombre 5" x1="775.76" y1="283.35" x2="989.18" y2="220.38" xlink:href="#Degradado_sin_nombre_5"/>
    <linearGradient id="Degradado_sin_nombre_52" data-name="Degradado sin nombre 5" x1="692.95" y1="265.31" x2="1063.29" y2="156.03" xlink:href="#Degradado_sin_nombre_5"/>
    <linearGradient id="Degradado_sin_nombre_53" data-name="Degradado sin nombre 5" x1="493.18" y1="-130.66" x2="787.32" y2="-217.46" gradientTransform="translate(905.32 -443.32) rotate(90)" xlink:href="#Degradado_sin_nombre_5"/>
    <linearGradient id="Degradado_sin_nombre_54" data-name="Degradado sin nombre 5" x1="818.46" y1="258.59" x2="985.99" y2="209.15" xlink:href="#Degradado_sin_nombre_5"/>
  </defs>
  <rect class="st13" width="1200" height="460" rx="28" ry="28"/>
  <rect class="st11" width="1200" height="460" rx="28" ry="28"/>
  <rect class="st2" x="1" y="1" width="1198" height="458" rx="27" ry="27"/>
  <g>
    <path class="st12" d="M630.88,168.15h319.01c34.16,0,61.85,27.69,61.85,61.85h0c0,34.16-27.69,61.85-61.85,61.85h-319.01c-34.16,0-61.85-27.69-61.85-61.85h0c0-34.16,27.69-61.85,61.85-61.85Z"/>
    <path class="st10" d="M630.88,194.19h319.01c19.78,0,35.81,16.03,35.81,35.81h0c0,19.78-16.03,35.81-35.81,35.81h-319.01c-19.78,0-35.81-16.03-35.81-35.81h0c0-19.78,16.03-35.81,35.81-35.81Z"/>
    <path class="st4" d="M933.19,205.97c10.75,0,19.47,8.56,19.47,19.13,0,10.57-8.71,19.14-19.46,19.14-5.17,0-10.12-2.02-13.77-5.61-7.6-7.47-7.6-19.59,0-27.06,3.65-3.59,8.6-5.6,13.76-5.6Z"/>
    <path class="st0" d="M725.58,230h160.51"/>
    <path class="st5" d="M1093.97,266.96l36.62-41.85-36.62-41.85M1044.79,225.1h85.8"/>
    <path class="st3" d="M948.96,237.98l15.73,12.52"/>
  </g>
  <g class="st7">
    <text class="st8" transform="translate(607.2 265.81)"><tspan x="0" y="0">FX</tspan></text>
  </g>
  <g class="st7">
    <g class="st7">
      <text class="st6" transform="translate(647.17 349.11)"><tspan x="0" y="0">EffectDocks</tspan></text>
    </g>
  </g>
</svg>