<?xml version="1.0" encoding="UTF-8"?>
<svg id="Capa_1" xmlns="http://www.w3.org/2000/svg" version="1.1" xmlns:xlink="http://www.w3.org/1999/xlink" viewBox="0 0 90 90">
  <!-- Generator: Adobe Illustrator 30.6.0, SVG Export Plug-In . SVG Version: 2.1.4 Build 109)  -->
  <defs>
    <style>
      .st0 {
        fill: #18202b;
        stroke: url(#Degradado_sin_nombre_12);
        stroke-miterlimit: 10;
      }

      .st1 {
        fill: none;
        opacity: .65;
        stroke: url(#Degradado_sin_nombre_4);
        stroke-linecap: round;
        stroke-linejoin: round;
        stroke-width: 2.8px;
      }

      .st1, .st2, .st3, .st4 {
        isolation: isolate;
      }

      .st3 {
        fill: #111823;
        opacity: .88;
      }

      .st5 {
        fill: #ffe066;
      }

      .st4 {
        fill: #b8a3ff;
        font-family: Arial-BoldMT, Arial;
        font-size: 52.96px;
        font-weight: 700;
      }

      .st6 {
        fill: #10151e;
        stroke: #334055;
        stroke-width: 2px;
      }
    </style>
    <linearGradient id="Degradado_sin_nombre_12" data-name="Degradado sin nombre 12" x1="6.99" y1="67.42" x2="83.01" y2="67.42" gradientUnits="userSpaceOnUse">
      <stop offset="0" stop-color="#baff2b"/>
      <stop offset="1" stop-color="#65deff"/>
    </linearGradient>
    <linearGradient id="Degradado_sin_nombre_4" data-name="Degradado sin nombre 4" x1="8.61" y1="1046.4" x2="108.97" y2="1076.01" gradientTransform="translate(0 -988)" gradientUnits="userSpaceOnUse">
      <stop offset="0" stop-color="#baff2b"/>
      <stop offset="1" stop-color="#65deff"/>
    </linearGradient>
  </defs>
  <rect class="st6" x="1" y="1" width="88" height="88" rx="24" ry="24"/>
  <path class="st0" d="M17.97,58.38h54.06c5.79,0,10.48,4.04,10.48,9.04h0c0,5-4.69,9.04-10.48,9.04H17.97c-5.79,0-10.48-4.04-10.48-9.04h0c0-5,4.69-9.04,10.48-9.04Z"/>
  <path class="st3" d="M14.74,60.63h60.53c3.76,0,6.79,3.04,6.79,6.79h0c0,3.76-3.04,6.79-6.79,6.79H14.74c-3.76,0-6.79-3.04-6.79-6.79h0c0-3.76,3.04-6.79,6.79-6.79Z"/>
  <path class="st1" d="M18.52,67.42h41.37"/>
  <g class="st2">
    <g class="st2">
      <text class="st4" transform="translate(11.9 50.78)"><tspan x="0" y="0">FX</tspan></text>
    </g>
  </g>
  <path class="st5" d="M71.99,62.43l-3.9,5.99h3.13l-1,4.63,3.94-6.58h-3.04l.86-4.04h0Z"/>
</svg>