<?xml version="1.0" encoding="UTF-8"?>
<svg id="Capa_1" xmlns="http://www.w3.org/2000/svg" version="1.1" xmlns:xlink="http://www.w3.org/1999/xlink" viewBox="0 0 90 90">
  <!-- Generator: Adobe Illustrator 30.6.0, SVG Export Plug-In . SVG Version: 2.1.4 Build 109)  -->
  <defs>
    <style>
      .st0 {
        stroke: url(#Degradado_sin_nombre_52);
      }

      .st0, .st1, .st2, .st3 {
        fill: none;
        stroke-linecap: round;
        stroke-linejoin: round;
      }

      .st1 {
        stroke: url(#Degradado_sin_nombre_54);
      }

      .st1, .st4 {
        stroke-width: 2px;
      }

      .st5, .st6, .st7, .st3 {
        isolation: isolate;
      }

      .st6 {
        fill: #b8a3ff;
        font-family: Arial-BoldMT, Arial;
        font-size: 25.79px;
        font-weight: 700;
      }

      .st8 {
        fill: #18202b;
        stroke: url(#Degradado_sin_nombre_5);
        stroke-width: 3px;
      }

      .st2 {
        stroke: url(#Degradado_sin_nombre_51);
      }

      .st7 {
        fill: #111823;
        opacity: .88;
      }

      .st9 {
        fill: #ffe066;
      }

      .st3 {
        opacity: .65;
        stroke: url(#Degradado_sin_nombre_53);
        stroke-width: 2.8px;
      }

      .st4 {
        fill: #10151e;
        stroke: #334055;
      }
    </style>
    <linearGradient id="Degradado_sin_nombre_5" data-name="Degradado sin nombre 5" x1="15.37" y1="74.32" x2="76.37" y2="56.32" gradientTransform="translate(0 92) scale(1 -1)" gradientUnits="userSpaceOnUse">
      <stop offset="0" stop-color="#baff2b"/>
      <stop offset="1" stop-color="#65deff"/>
    </linearGradient>
    <linearGradient id="Degradado_sin_nombre_51" data-name="Degradado sin nombre 5" x1="39.41" y1="74.45" x2="76.72" y2="63.44" xlink:href="#Degradado_sin_nombre_5"/>
    <linearGradient id="Degradado_sin_nombre_52" data-name="Degradado sin nombre 5" x1="42.56" y1="71.29" x2="76.46" y2="61.29" xlink:href="#Degradado_sin_nombre_5"/>
    <linearGradient id="Degradado_sin_nombre_53" data-name="Degradado sin nombre 5" x1="11.83" y1="73.81" x2="103.41" y2="46.79" xlink:href="#Degradado_sin_nombre_5"/>
    <linearGradient id="Degradado_sin_nombre_54" data-name="Degradado sin nombre 5" x1="19.43" y1="52.04" x2="62.34" y2="39.38" xlink:href="#Degradado_sin_nombre_5"/>
  </defs>
  <rect class="st4" x="1" y="1" width="88" height="88" rx="24" ry="24"/>
  <path class="st9" d="M29.25,56.18l-8.25,12.66h6.62l-2.11,9.78,8.34-13.91h-6.43s1.82-8.54,1.82-8.54Z"/>
  <path class="st8" d="M20.5,16.92h49c5.25,0,9.5,4.25,9.5,9.5h0c0,5.25-4.25,9.5-9.5,9.5H20.5c-5.25,0-9.5-4.25-9.5-9.5h0c0-5.25,4.25-9.5,9.5-9.5Z"/>
  <path class="st7" d="M20.5,20.92h49c3.04,0,5.5,2.46,5.5,5.5h0c0,3.04-2.46,5.5-5.5,5.5H20.5c-3.04,0-5.5-2.46-5.5-5.5h0c0-3.04,2.46-5.5,5.5-5.5Z"/>
  <path class="st2" d="M66.93,22.73c1.65,0,2.99,1.32,2.99,2.94,0,1.62-1.34,2.94-2.99,2.94-.79,0-1.55-.31-2.12-.86-1.17-1.15-1.17-3.01,0-4.16.56-.55,1.32-.86,2.11-.86Z"/>
  <path class="st0" d="M69.36,27.77l2.39,2.39"/>
  <path class="st3" d="M21,26.42h37.5"/>
  <path class="st1" d="M38.95,48.41l6.05,5.3,6.05-5.3M45,53.71v-12.41"/>
  <g class="st5">
    <text class="st6" transform="translate(35.33 76.79)"><tspan x="0" y="0">FX</tspan></text>
  </g>
</svg>