<svg xmlns="http://www.w3.org/2000/svg" viewBox="0 0 96 96">
  <defs>
    <linearGradient id="g" x1="0" y1="0" x2="1" y2="1"><stop stop-color="#baff2b"/><stop offset="1" stop-color="#65deff"/></linearGradient>
    <linearGradient id="v" x1="0" y1="1" x2="1" y2="0"><stop stop-color="#6d56dd"/><stop offset="1" stop-color="#aa8cff"/></linearGradient>
    <filter id="s"><feGaussianBlur stdDeviation="3"/></filter>
  </defs>
  <rect x="4" y="4" width="88" height="88" rx="24" fill="#10151e" stroke="#334055" stroke-width="2"/>
  <path d="M22 29h31a8 8 0 0 1 8 8v29a8 8 0 0 1-8 8H22a8 8 0 0 1-8-8V37a8 8 0 0 1 8-8Z" fill="#19212d" stroke="url(#g)" stroke-width="3"/>
  <path d="M43 22h31a8 8 0 0 1 8 8v29a8 8 0 0 1-8 8H43a8 8 0 0 1-8-8V30a8 8 0 0 1 8-8Z" fill="#171626" stroke="url(#v)" stroke-width="3"/>
  <circle cx="61" cy="43" r="11" fill="url(#v)" opacity=".9"/>
  <circle cx="61" cy="43" r="16" fill="#9178ff" opacity=".3" filter="url(#s)"/>
  <path d="M24 44h17M24 52h12M24 60h20" stroke="#dfe6f2" stroke-width="4" stroke-linecap="round"/>
  <path d="m44 70 8 7 8-7M52 77V59" fill="none" stroke="url(#g)" stroke-width="4" stroke-linecap="round" stroke-linejoin="round"/>
</svg>

