<?xml version="1.0" encoding="UTF-8"?>
<svg id="Capa_1" xmlns="http://www.w3.org/2000/svg" version="1.1" xmlns:xlink="http://www.w3.org/1999/xlink" viewBox="0 0 1200.36 520">
  <!-- Generator: Adobe Illustrator 30.6.0, SVG Export Plug-In . SVG Version: 2.1.4 Build 109)  -->
  <defs>
    <style>
      .st0 {
        font-size: 20px;
        letter-spacing: .2em;
      }

      .st0, .st1, .st2, .st3, .st4, .st5 {
        isolation: isolate;
      }

      .st0, .st1, .st4 {
        font-family: Arial-BoldMT, Arial;
        font-weight: 700;
      }

      .st0, .st4 {
        fill: #c58dff;
      }

      .st1 {
        fill: #f5f7fb;
        font-size: 53.44px;
      }

      .st6 {
        stroke: #69ddff;
        stroke-linecap: round;
        stroke-width: 9px;
      }

      .st7 {
        fill: #18182b;
        stroke-opacity: .55;
      }

      .st7, .st5 {
        stroke: #c58dff;
        stroke-width: 2px;
      }

      .st8 {
        fill: url(#Degradado_sin_nombre_2);
      }

      .st2 {
        fill: #b7c3d1;
        font-family: ArialMT, Arial;
        font-size: 22px;
      }

      .st3 {
        fill: #fff;
        opacity: .22;
      }

      .st9 {
        fill: url(#Degradado_sin_nombre);
      }

      .st4 {
        font-size: 326.09px;
      }

      .st5 {
        fill: none;
        opacity: .3;
      }
    </style>
    <linearGradient id="Degradado_sin_nombre" data-name="Degradado sin nombre" x1=".28" y1="522" x2="1200.28" y2="2" gradientTransform="translate(0 522) scale(1 -1)" gradientUnits="userSpaceOnUse">
      <stop offset="0" stop-color="#0b1017"/>
      <stop offset=".58" stop-color="#121b27"/>
      <stop offset="1" stop-color="#15101e"/>
    </linearGradient>
    <radialGradient id="Degradado_sin_nombre_2" data-name="Degradado sin nombre 2" cx="-358.56" cy="801.98" fx="-358.56" fy="801.98" r="1" gradientTransform="translate(-386611.2918 -66297.8514) rotate(120) scale(380 -460)" gradientUnits="userSpaceOnUse">
      <stop offset="0" stop-color="#c58dff" stop-opacity=".28"/>
      <stop offset="1" stop-color="#c58dff" stop-opacity="0"/>
    </radialGradient>
  </defs>
  <rect class="st9" x=".28" width="1200" height="520" rx="28" ry="28"/>
  <rect class="st8" x=".28" width="1200" height="520" rx="28" ry="28"/>
  <path class="st5" d="M.28,465c230-67,350,35,568-60s287-228,632-201"/>
  <text class="st0" transform="translate(36.71 57.87)"><tspan x="0" y="0">PRESETS DE TEXTO</tspan></text>
  <text class="st2" transform="translate(31.67 89.18)"><tspan x="0" y="0">Aplica estilos tipograficos listos para animar.</tspan></text>
  <g>
    <rect class="st7" x="783.15" y="57.87" width="372.96" height="404.26" rx="28" ry="28"/>
    <text class="st4" transform="translate(861.39 350.17)"><tspan x="0" y="0">T</tspan></text>
    <path class="st6" d="M1005.66,201.64h72.21M1005.66,242.26h53.03M1005.66,282.87h72.21M1005.66,323.49h42.87"/>
    <path class="st3" d="M871.82,357.8h193c6.48,0,11.74,5.25,11.74,11.74h0c0,6.48-5.25,11.74-11.74,11.74h-193c-6.48,0-11.74-5.25-11.74-11.74h0c0-6.48,5.25-11.74,11.74-11.74Z"/>
  </g>
  <text class="st1" transform="translate(826.22 442.01)"><tspan x="0" y="0">TextPresets</tspan></text>
</svg>