<?xml version="1.0" encoding="UTF-8"?>
<svg id="Capa_1" xmlns="http://www.w3.org/2000/svg" version="1.1" xmlns:xlink="http://www.w3.org/1999/xlink" viewBox="0 0 1200.36 520">
  <!-- Generator: Adobe Illustrator 30.6.0, SVG Export Plug-In . SVG Version: 2.1.4 Build 109)  -->
  <defs>
    <style>
      .st0 {
        fill: #ffd06a;
      }

      .st1 {
        fill: #300;
      }

      .st2 {
        fill: #ff9a00;
      }

      .st2, .st3, .st4, .st5, .st6, .st7, .st8 {
        isolation: isolate;
      }

      .st2, .st3, .st6, .st7 {
        font-family: Arial-BoldMT, Arial;
        font-weight: 700;
      }

      .st2, .st6 {
        font-size: 76.87px;
      }

      .st9 {
        fill: #001e36;
      }

      .st10 {
        fill: url(#Degradado_sin_nombre_2);
      }

      .st3 {
        font-size: 20px;
        letter-spacing: .2em;
      }

      .st3, .st11 {
        fill: #ffab5b;
      }

      .st5 {
        fill: #b7c3d1;
        font-family: ArialMT, Arial;
        font-size: 22px;
      }

      .st6 {
        fill: #31a8ff;
      }

      .st7 {
        fill: #f5f7fb;
        font-size: 28.9px;
      }

      .st12 {
        fill: url(#Degradado_sin_nombre);
      }

      .st8 {
        fill: none;
        opacity: .3;
      }

      .st8, .st13 {
        stroke: #ffab5b;
        stroke-width: 2px;
      }

      .st13 {
        fill: #281d16;
        stroke-opacity: .55;
      }
    </style>
    <linearGradient id="Degradado_sin_nombre" data-name="Degradado sin nombre" x1=".28" y1="558" x2="1200.28" y2="1078" gradientTransform="translate(0 -558)" gradientUnits="userSpaceOnUse">
      <stop offset="0" stop-color="#0b1017"/>
      <stop offset=".58" stop-color="#121b27"/>
      <stop offset="1" stop-color="#15101e"/>
    </linearGradient>
    <radialGradient id="Degradado_sin_nombre_2" data-name="Degradado sin nombre 2" cx="-543.17" cy="-1.63" fx="-543.17" fy="-1.63" r="1" gradientTransform="translate(-102850.6319 178534.8412) rotate(120) scale(380 460)" gradientUnits="userSpaceOnUse">
      <stop offset="0" stop-color="#ffab5b" stop-opacity=".28"/>
      <stop offset="1" stop-color="#ffab5b" stop-opacity="0"/>
    </radialGradient>
  </defs>
  <rect class="st12" x=".28" width="1200" height="520" rx="28" ry="28"/>
  <rect class="st10" x=".28" width="1200" height="520" rx="28" ry="28"/>
  <path class="st8" d="M.28,465c230-67,350,35,568-60,218-95,287-228,632-201"/>
  <g class="st4">
    <text class="st3" transform="translate(31.08 69.55)"><tspan x="0" y="0">MUEVE ASSETS ENTRE APPS</tspan></text>
  </g>
  <g class="st4">
    <text class="st5" transform="translate(26.6 100.1)"><tspan x="0" y="0">Envio rapido de contenido entre aplicaciones</tspan></text>
  </g>
  <g>
    <rect class="st13" x="653.85" y="120.83" width="474.43" height="237.6" rx="28" ry="28"/>
    <g>
      <path class="st11" d="M858.04,214.38h49.24l-11.21-11.21,6.81-6.81,23.22,23.22-23.22,23.22-6.81-6.81,11.21-11.21h-49.24v-10.41h0Z"/>
      <path class="st0" d="M924.1,255.47h-49.24l11.21,11.21-6.81,6.81-23.22-23.22,23.22-23.22,6.81,6.81-11.21,11.21h49.24v10.41h0Z"/>
    </g>
  </g>
  <g>
    <rect class="st1" x="699.91" y="165.75" width="133.34" height="133.34" rx="29.97" ry="29.97"/>
    <g class="st4">
      <text class="st2" transform="translate(729.72 263.8)"><tspan x="0" y="0">Ai</tspan></text>
    </g>
  </g>
  <g class="st4">
    <text class="st7" transform="translate(843.39 299.09)"><tspan x="0" y="0">Shuttle</tspan></text>
  </g>
  <g>
    <rect class="st9" x="946.88" y="165.75" width="133.34" height="133.34" rx="29.97" ry="29.97"/>
    <g class="st4">
      <text class="st6" transform="translate(968.11 263.8)"><tspan x="0" y="0">Ps</tspan></text>
    </g>
  </g>
</svg>