<?xml version="1.0" encoding="UTF-8"?>
<svg id="Capa_1" xmlns="http://www.w3.org/2000/svg" version="1.1" xmlns:xlink="http://www.w3.org/1999/xlink" viewBox="0 0 1207.02 520">
  <!-- Generator: Adobe Illustrator 30.6.0, SVG Export Plug-In . SVG Version: 2.1.4 Build 109)  -->
  <defs>
    <style>
      .st0 {
        fill: #ffc68d;
      }

      .st1 {
        fill: #ffe17d;
      }

      .st2 {
        fill: #f5f7fb;
        font-family: Arial-BoldMT, Arial;
        font-size: 42.28px;
        font-weight: 700;
      }

      .st2, .st3, .st4 {
        isolation: isolate;
      }

      .st5 {
        fill: #fff;
      }

      .st6 {
        fill: #c9ff3d;
      }

      .st7 {
        fill: url(#Degradado_sin_nombre_2);
      }

      .st8 {
        fill: #a993ff;
      }

      .st9 {
        stroke: #17241f;
        stroke-width: 7px;
      }

      .st9, .st10 {
        stroke-linecap: round;
      }

      .st11 {
        fill: #e0d3ff;
      }

      .st12 {
        fill: url(#Degradado_sin_nombre);
      }

      .st13 {
        fill: #8490ae;
      }

      .st4 {
        opacity: .22;
        stroke: #c9ff3d;
        stroke-width: 2px;
      }

      .st4, .st10 {
        fill: none;
      }

      .st14 {
        fill: #30384e;
        stroke: #a9b8df;
        stroke-opacity: .36;
      }

      .st15 {
        opacity: .5;
      }

      .st10 {
        stroke: #24263a;
        stroke-width: 8px;
      }
    </style>
    <linearGradient id="Degradado_sin_nombre" data-name="Degradado sin nombre" x1="-706.53" y1="1.08" x2="-705.53" y2="2.08" gradientTransform="translate(847840.0223 -558) scale(1200 520)" gradientUnits="userSpaceOnUse">
      <stop offset="0" stop-color="#0e121b"/>
      <stop offset=".55" stop-color="#20243a"/>
      <stop offset="1" stop-color="#221c35"/>
    </linearGradient>
    <radialGradient id="Degradado_sin_nombre_2" data-name="Degradado sin nombre 2" cx="-1065.35" cy="803.93" fx="-1065.35" fy="803.93" r="1" gradientTransform="translate(-521671.7054 165850.8913) rotate(120) scale(380 -460)" gradientUnits="userSpaceOnUse">
      <stop offset="0" stop-color="#ffe066" stop-opacity=".28"/>
      <stop offset="1" stop-color="#ffe066" stop-opacity="0"/>
    </radialGradient>
  </defs>
  <rect class="st12" x="6.88" width="1200" height="520" rx="28" ry="28"/>
  <path class="st4" d="M.16,407c312.85-50,501.78,48,796.36-72,148.3-60,266.13-65,410.37-46"/>
  <rect class="st7" x="6.88" width="1200" height="520" rx="28" ry="28"/>
  <g>
    <g>
      <rect class="st14" x="795.7" y="74.34" width="301.35" height="287.83" rx="29" ry="29"/>
      <g class="st15">
        <circle class="st13" cx="828.3" cy="106.94" r="1.59"/>
        <circle class="st13" cx="860.11" cy="106.94" r="1.59"/>
        <circle class="st13" cx="891.91" cy="106.94" r="1.59"/>
        <circle class="st13" cx="923.71" cy="106.94" r="1.59"/>
        <circle class="st13" cx="955.52" cy="106.94" r="1.59"/>
        <circle class="st13" cx="987.32" cy="106.94" r="1.59"/>
        <circle class="st13" cx="1019.13" cy="106.94" r="1.59"/>
        <circle class="st13" cx="1050.93" cy="106.94" r="1.59"/>
        <circle class="st13" cx="828.3" cy="138.75" r="1.59"/>
        <circle class="st13" cx="860.11" cy="138.75" r="1.59"/>
        <circle class="st13" cx="891.91" cy="138.75" r="1.59"/>
        <circle class="st13" cx="923.71" cy="138.75" r="1.59"/>
        <circle class="st13" cx="955.52" cy="138.75" r="1.59"/>
        <circle class="st13" cx="987.32" cy="138.75" r="1.59"/>
        <circle class="st13" cx="1019.13" cy="138.75" r="1.59"/>
        <circle class="st13" cx="1050.93" cy="138.75" r="1.59"/>
      </g>
      <rect class="st1" x="834.53" y="125.64" width="123.24" height="110.52" rx="17" ry="17" transform="translate(-14 94.66) rotate(-6)"/>
      <rect class="st8" x="940.6" y="170.02" width="107.34" height="115.29" rx="17" ry="17" transform="translate(647.1285 1186.7798) rotate(-83)"/>
      <rect class="st0" x="869.09" y="234.28" width="80.31" height="120.06" rx="17" ry="17" transform="translate(552.2252 1180.8011) rotate(-86)"/>
      <path class="st10" d="M854.83,178.79c11.4-13.19,20.32-11.53,39.54-6.66,12.9,3.27,17.18-14.66,47.75-5.27M852.57,157.81c17.49-20.67,37.37.54,48.23-5.93,19.81-11.8,25.5-5.11,38.94-1.38M957.11,190.26c14.31,5.57,13.52,6.27,30.21,5.48,11.13-.8,20.67-3.38,31.8,2.98,0,0,12.49,6.77,24.78,2.24"/>
      <path class="st5" d="M1011.18,308.9l58.84-58.84,15.11,15.11-58.84,58.84-27.83,7.95,12.72-23.06Z"/>
      <path class="st11" d="M1011.18,308.9l15.11,15.11-27.83,7.95,12.72-23.06Z"/>
      <circle class="st6" cx="1050.93" cy="120.84" r="22.26"/>
      <path class="st9" d="M1050.93,109.71v22.26M1039.8,120.26h22.26"/>
    </g>
    <polygon points="1004.74 320.43 1011.18 328.42 998.45 331.93 1004.74 320.43"/>
  </g>
  <g class="st3">
    <g class="st3">
      <text class="st2" transform="translate(791.79 404.86)"><tspan x="0" y="0">ClipdockBoard</tspan></text>
    </g>
  </g>
</svg>