<?xml version="1.0" encoding="UTF-8"?>
<svg id="Capa_1" xmlns="http://www.w3.org/2000/svg" version="1.1" xmlns:xlink="http://www.w3.org/1999/xlink" viewBox="0 0 246 246">
  <!-- Generator: Adobe Illustrator 30.6.0, SVG Export Plug-In . SVG Version: 2.1.4 Build 109)  -->
  <defs>
    <style>
      .st0 {
        fill: #ffd89c;
      }

      .st1 {
        stroke: #18211d;
        stroke-linecap: round;
        stroke-width: 10px;
      }

      .st2 {
        fill: #f3f1ff;
      }

      .st3 {
        fill: red;
      }

      .st4 {
        fill: #c9ff3d;
      }

      .st5 {
        fill: #6f9124;
      }

      .st6 {
        fill: url(#Degradado_sin_nombre);
        stroke: #8ebc36;
        stroke-width: 6px;
      }

      .st7 {
        fill: #9a88ff;
      }
    </style>
    <linearGradient id="Degradado_sin_nombre" data-name="Degradado sin nombre" x1="-2362.07" y1="640.82" x2="-2142.07" y2="420.82" gradientTransform="translate(571218 158120) scale(240 -240)" gradientUnits="userSpaceOnUse">
      <stop offset="0" stop-color="#17231a"/>
      <stop offset="1" stop-color="#18182b"/>
    </linearGradient>
  </defs>
  <rect class="st6" x="3" y="3" width="240" height="240" rx="58" ry="58"/>
  <path class="st4" d="M63.76,25.43h143.34v150.97l-41.58,38.08H42.25V43.68c.42-2.01,1.83-7.25,6.87-11.82,5.76-5.23,12.53-6.2,14.64-6.43Z"/>
  <path class="st5" d="M207.1,25.43h-41.23l41.23,42.73V25.43Z"/>
  <path class="st1" d="M64.99,63.85h100.89M64.99,90.85h72.3M64.99,117.85h87.44"/>
  <path class="st7" d="M134.58,173.11l64.94-64.94,21.65,21.65-64.94,64.94-33.37,10.82,11.72-32.47h0Z"/>
  <path class="st2" d="M199.52,108.17l10.82-10.82,21.65,21.65-10.82,10.82-21.65-21.65h0Z"/>
  <path class="st0" d="M122.86,205.57l11.72-32.47,21.65,21.65-33.37,10.82Z"/>
  <path class="st4" d="M112.45,222.96"/>
  <polygon class="st3" points="128.18 190.83 136.63 201.11 122.86 205.57 128.18 190.83"/>
</svg>