<?xml version="1.0" encoding="UTF-8"?>
<svg id="Capa_1" xmlns="http://www.w3.org/2000/svg" version="1.1" xmlns:xlink="http://www.w3.org/1999/xlink" viewBox="0 0 1206.77 520">
  <!-- Generator: Adobe Illustrator 30.6.0, SVG Export Plug-In . SVG Version: 2.1.4 Build 109)  -->
  <defs>
    <style>
      .st0 {
        fill: #191d42;
        stroke: #9baaff;
        stroke-opacity: .48;
      }

      .st0, .st1 {
        stroke-width: 2px;
      }

      .st2 {
        fill: #273054;
        stroke: #b3beff;
        stroke-opacity: .5;
      }

      .st3 {
        fill: url(#Degradado_sin_nombre_5);
      }

      .st4 {
        fill: #b825d6;
        font-size: 36.31px;
      }

      .st4, .st5, .st1, .st6 {
        isolation: isolate;
      }

      .st4, .st6 {
        font-family: Arial-BoldMT, Arial;
        font-weight: 700;
      }

      .st7 {
        fill: url(#Degradado_sin_nombre_4);
      }

      .st8 {
        fill: #c9ff3d;
      }

      .st9 {
        fill: url(#Degradado_sin_nombre_2);
      }

      .st10 {
        stroke: #8fa4ff;
      }

      .st10, .st1, .st11 {
        fill: none;
      }

      .st10, .st11 {
        stroke-linejoin: round;
        stroke-width: 8px;
      }

      .st10, .st11, .st12, .st13 {
        stroke-linecap: round;
      }

      .st1 {
        opacity: .22;
        stroke: #9aaaff;
      }

      .st6 {
        fill: #f2a6ff;
        font-size: 12.39px;
      }

      .st11 {
        stroke: #c9ff3d;
      }

      .st14 {
        fill: #99d8ff;
      }

      .st12 {
        stroke: #31376d;
      }

      .st12, .st13 {
        stroke-width: 9px;
      }

      .st15 {
        fill: url(#Degradado_sin_nombre_3);
      }

      .st13 {
        stroke: #59396b;
      }

      .st16 {
        fill: url(#Degradado_sin_nombre);
      }

      .st17 {
        fill: #899bff;
      }

      .st18 {
        fill: #313c79;
      }

      .st19 {
        fill: #748dff;
      }

      .st20 {
        fill: #d4a5ff;
      }

      .st21 {
        fill: #202756;
      }
    </style>
    <linearGradient id="Degradado_sin_nombre" data-name="Degradado sin nombre" x1="-306.74" y1="1.07" x2="-305.74" y2="2.07" gradientTransform="translate(368090.3707 -558) scale(1200 520)" gradientUnits="userSpaceOnUse">
      <stop offset="0" stop-color="#0c1020"/>
      <stop offset=".52" stop-color="#151a3a"/>
      <stop offset="1" stop-color="#211532"/>
    </linearGradient>
    <linearGradient id="Degradado_sin_nombre_2" data-name="Degradado sin nombre 2" x1="-294.08" y1="19.22" x2="-293.77" y2="19.53" gradientTransform="translate(13897.9064 -478) scale(44)" gradientUnits="userSpaceOnUse">
      <stop offset="0" stop-color="#f4a6ff"/>
      <stop offset="1" stop-color="#c86bff"/>
    </linearGradient>
    <linearGradient id="Degradado_sin_nombre_3" data-name="Degradado sin nombre 3" x1="-294.89" y1="19.22" x2="-294.59" y2="19.53" gradientTransform="translate(13949.9064 -478) scale(44)" gradientUnits="userSpaceOnUse">
      <stop offset="0" stop-color="#f4a6ff"/>
      <stop offset="1" stop-color="#c86bff"/>
    </linearGradient>
    <linearGradient id="Degradado_sin_nombre_4" data-name="Degradado sin nombre 4" x1="-294.08" y1="18.41" x2="-293.77" y2="18.72" gradientTransform="translate(13897.9064 -426) scale(44)" gradientUnits="userSpaceOnUse">
      <stop offset="0" stop-color="#f4a6ff"/>
      <stop offset="1" stop-color="#c86bff"/>
    </linearGradient>
    <linearGradient id="Degradado_sin_nombre_5" data-name="Degradado sin nombre 5" x1="-294.89" y1="18.41" x2="-294.59" y2="18.72" gradientTransform="translate(13949.9064 -426) scale(44)" gradientUnits="userSpaceOnUse">
      <stop offset="0" stop-color="#f4a6ff"/>
      <stop offset="1" stop-color="#c86bff"/>
    </linearGradient>
  </defs>
  <rect class="st16" width="1200" height="520" rx="28" ry="28"/>
  <path class="st1" d="M6.55,216.55c292.49,23,386.65,125,613.03,63,180.3-49,376.62-9,586.97,38"/>
  <g>
    <g>
      <g>
        <rect class="st0" x="761.04" y="96.53" width="350.87" height="326.95" rx="30" ry="30"/>
        <g>
          <path class="st10" d="M868,234.21v32.29h71.15v33.39M1010.31,234.21v32.29h-71.15v33.39"/>
          <circle class="st8" cx="868" cy="227.37" r="6.57"/>
          <circle class="st8" cx="1010.31" cy="227.37" r="6.57"/>
          <circle class="st8" cx="939.16" cy="299.89" r="6.57"/>
        </g>
        <g>
          <path class="st17" d="M819.67,132.24h33.78l8.73,12.88h54.16v65.18h-96.67s0-78.06,0-78.06Z"/>
          <path class="st12" d="M828.99,166.04h71.63"/>
        </g>
        <g>
          <path class="st20" d="M961.77,132.24h33.91l8.77,12.88h54.38v65.18h-97.06s0-78.06,0-78.06Z"/>
          <path class="st13" d="M971.13,166.04h71.92"/>
        </g>
        <g>
          <path class="st19" d="M891.96,310.04h33.25l8.58,13.68h52.56v66.79h-94.4v-80.47h0Z"/>
          <rect class="st21" x="901.61" y="336.6" width="53.1" height="8.85" rx="4.43" ry="4.43"/>
          <path class="st18" d="M904.02,355.11h30.03c1.34,0,2.41,1.62,2.41,3.62h0c0,2-1.08,3.62-2.41,3.62h-30.03c-1.34,0-2.41-1.62-2.41-3.62h0c0-2,1.08-3.62,2.41-3.62Z"/>
        </g>
        <rect class="st2" x="999.45" y="349.04" width="42.42" height="44.74" rx="16" ry="16"/>
        <path class="st11" d="M1009.37,373.06l7.71,7.16,14.87-17.63"/>
      </g>
      <g>
        <rect class="st14" x="854.3" y="176.62" width="12.71" height="12.71"/>
        <rect class="st14" x="869.01" y="176.62" width="12.71" height="12.71"/>
        <rect class="st14" x="854.3" y="191.33" width="12.71" height="12.71"/>
        <rect class="st14" x="869.01" y="191.33" width="12.71" height="12.71"/>
      </g>
      <g class="st5">
        <text class="st4" transform="translate(991.71 203.26)"><tspan x="0" y="0">Pr</tspan></text>
      </g>
    </g>
    <g>
      <rect class="st9" x="958.38" y="367.81" width="13.63" height="13.63"/>
      <rect class="st15" x="974.48" y="367.81" width="13.63" height="13.63"/>
      <rect class="st7" x="958.38" y="383.91" width="13.63" height="13.63"/>
      <rect class="st3" x="974.48" y="383.91" width="13.63" height="13.63"/>
      <g class="st5">
        <text class="st6" transform="translate(983.39 408.68)"><tspan x="0" y="0">Pr</tspan></text>
      </g>
    </g>
  </g>
</svg>