<svg xmlns="http://www.w3.org/2000/svg" viewBox="0 0 1200 520" role="img" aria-labelledby="title desc">
  <title id="title">PR Hybrid Organizer</title><desc id="desc">Un flujo visual para organizar bins y medios de Premiere.</desc>
  <defs>
    <linearGradient id="bg" x1="0" y1="0" x2="1" y2="1"><stop stop-color="#0c1020"/><stop offset=".52" stop-color="#151a3a"/><stop offset="1" stop-color="#211532"/></linearGradient>
    <filter id="blur"><feGaussianBlur stdDeviation="21"/></filter>
  </defs>
  <rect width="1200" height="520" rx="28" fill="url(#bg)"/>
  <ellipse cx="987" cy="246" rx="264" ry="178" fill="#879dff" opacity=".14" filter="url(#blur)"/>
  <path d="M600 123c146 23 193 125 306 63 90-49 188-9 293 38" fill="none" stroke="#9aaaff" stroke-width="2" opacity=".22"/>
  <g transform="translate(681 62)">
    <rect x="0" y="18" width="436" height="355" rx="30" fill="#191d42" stroke="#9baaff" stroke-opacity=".48" stroke-width="2"/>
    <path d="M88 119v59h130v61M348 119v59H218v61" fill="none" stroke="#8fa4ff" stroke-width="8" stroke-linecap="round" stroke-linejoin="round"/>
    <circle cx="88" cy="101" r="12" fill="#c9ff3d"/><circle cx="348" cy="101" r="12" fill="#c9ff3d"/><circle cx="218" cy="239" r="12" fill="#c9ff3d"/>
    <g transform="translate(42 47)"><path d="M0 26h58l15 16h93v81H0z" fill="#899bff"/><path d="M16 68h123" stroke="#31376d" stroke-width="9" stroke-linecap="round"/></g>
    <g transform="translate(275 47)"><path d="M0 26h58l15 16h93v81H0z" fill="#d4a5ff"/><path d="M16 68h123" stroke="#59396b" stroke-width="9" stroke-linecap="round"/></g>
    <g transform="translate(135 247)"><path d="M0 28h62l16 17h98v83H0z" fill="#748dff"/><rect x="18" y="61" width="99" height="11" rx="5" fill="#202756"/><rect x="18" y="84" width="65" height="9" rx="4.5" fill="#313c79"/></g>
    <rect x="302" y="260" width="88" height="67" rx="16" fill="#273054" stroke="#b3beff" stroke-opacity=".5"/><path d="m324 290 14 13 27-32" fill="none" stroke="#c9ff3d" stroke-width="8" stroke-linecap="round" stroke-linejoin="round"/>
  </g>
</svg>
