<?xml version="1.0" encoding="UTF-8"?>
<svg id="Capa_1" xmlns="http://www.w3.org/2000/svg" version="1.1" xmlns:xlink="http://www.w3.org/1999/xlink" viewBox="0 0 1200.36 520">
  <!-- Generator: Adobe Illustrator 30.6.0, SVG Export Plug-In . SVG Version: 2.1.4 Build 109)  -->
  <defs>
    <style>
      .st0 {
        fill: #edf4f8;
        font-size: 14px;
        letter-spacing: .09em;
      }

      .st0, .st1, .st2, .st3, .st4, .st5, .st6, .st7 {
        isolation: isolate;
      }

      .st0, .st5, .st6, .st7 {
        font-family: Arial-BoldMT, Arial;
        font-weight: 700;
      }

      .st8 {
        fill: #f4c311;
      }

      .st9 {
        stroke: #efbf14;
      }

      .st9, .st10, .st1, .st11, .st12 {
        fill: none;
      }

      .st9, .st12 {
        stroke-linecap: round;
        stroke-width: 3px;
      }

      .st10 {
        stroke: #64dfff;
        stroke-opacity: .1;
      }

      .st1 {
        opacity: .3;
      }

      .st1, .st13, .st14 {
        stroke: #a48cff;
      }

      .st1, .st15, .st14 {
        stroke-width: 2px;
      }

      .st13 {
        fill: #161b24;
      }

      .st13, .st14 {
        stroke-opacity: .55;
      }

      .st2 {
        fill: #6b4b09;
        opacity: .48;
        stroke-miterlimit: 10;
        stroke-width: .5px;
      }

      .st2, .st15 {
        stroke: #7e69cf;
      }

      .st4 {
        fill: #b7c3d1;
        font-family: ArialMT, Arial;
      }

      .st4, .st6 {
        font-size: 22px;
      }

      .st5 {
        fill: #f5f7fb;
        font-size: 36.5px;
      }

      .st16 {
        fill: url(#Degradado_sin_nombre_7);
      }

      .st12 {
        stroke: #f5f7fb;
        stroke-linejoin: round;
      }

      .st17 {
        stroke: #6e678c;
        stroke-width: 4px;
      }

      .st15 {
        fill: #1b1230;
      }

      .st14 {
        fill: #161426;
      }

      .st18 {
        fill: url(#Degradado_sin_nombre_8);
      }

      .st6 {
        fill: #b8a3ff;
      }

      .st19 {
        clip-path: url(#clippath);
      }

      .st7 {
        fill: #a48cff;
        font-size: 38.63px;
        letter-spacing: .2em;
      }

      .st20 {
        fill: url(#Degradado_sin_nombre_12);
      }
    </style>
    <linearGradient id="Degradado_sin_nombre_7" data-name="Degradado sin nombre 7" x1=".28" y1="558" x2="1200.28" y2="1078" gradientTransform="translate(0 -558)" gradientUnits="userSpaceOnUse">
      <stop offset="0" stop-color="#0b1017"/>
      <stop offset=".58" stop-color="#121b27"/>
      <stop offset="1" stop-color="#15101e"/>
    </linearGradient>
    <radialGradient id="Degradado_sin_nombre_8" data-name="Degradado sin nombre 8" cx="-717.12" cy="-1.96" fx="-717.12" fy="-1.96" r="1" gradientTransform="translate(-136031.1491 235704.2922) rotate(120) scale(380 460)" gradientUnits="userSpaceOnUse">
      <stop offset="0" stop-color="#a48cff" stop-opacity=".28"/>
      <stop offset="1" stop-color="#a48cff" stop-opacity="0"/>
    </radialGradient>
    <clipPath id="clippath">
      <rect class="st11" x="790.91" y="65.1" width="359.62" height="389.8" rx="35.21" ry="35.21"/>
    </clipPath>
    <radialGradient id="Degradado_sin_nombre_12" data-name="Degradado sin nombre 12" cx="970.72" cy="259.49" fx="970.72" fy="259.49" r="226.13" gradientTransform="translate(0 522) scale(1 -1)" gradientUnits="userSpaceOnUse">
      <stop offset="0" stop-color="#64dfff" stop-opacity=".14"/>
      <stop offset="1" stop-color="#64dfff" stop-opacity="0"/>
    </radialGradient>
  </defs>
  <path class="st13" d="M74.28,393h0"/>
  <rect class="st16" x=".28" width="1200" height="520" rx="28" ry="28"/>
  <rect class="st18" x=".28" width="1200" height="520" rx="28" ry="28"/>
  <path class="st1" d="M.28,465c230-67,350,35,568-60,218-95,287-228,632-201"/>
  <g class="st3">
    <text class="st7" transform="translate(40.55 97.73)"><tspan x="0" y="0">CURVAS BEZIER</tspan></text>
  </g>
  <g class="st3">
    <text class="st4" transform="translate(37.98 143.6)"><tspan x="0" y="0">Control visual para animaciones suaves y precisas.</tspan></text>
  </g>
  <g>
    <rect class="st14" x="790.91" y="65.1" width="359.62" height="389.8" rx="28" ry="28"/>
    <g class="st19">
      <g>
        <rect class="st20" x="790.91" y="65.1" width="359.62" height="389.8"/>
        <g>
          <line class="st10" x1="850.01" y1="384.48" x2="850.01" y2="133"/>
          <line class="st10" x1="912.25" y1="384.48" x2="912.25" y2="133"/>
          <line class="st10" x1="974.49" y1="384.48" x2="974.49" y2="133"/>
          <line class="st10" x1="1036.73" y1="384.48" x2="1036.73" y2="133"/>
          <line class="st10" x1="1098.98" y1="384.48" x2="1098.98" y2="133"/>
          <line class="st10" x1="850.01" y1="384.48" x2="1098.98" y2="384.48"/>
          <line class="st10" x1="850.01" y1="321.61" x2="1098.98" y2="321.61"/>
          <line class="st10" x1="850.01" y1="258.74" x2="1098.98" y2="258.74"/>
          <line class="st10" x1="850.01" y1="195.87" x2="1098.98" y2="195.87"/>
          <line class="st10" x1="850.01" y1="133" x2="1098.98" y2="133"/>
        </g>
      </g>
    </g>
    <path class="st17" d="M850.01,386.97v-253.18M850.01,384.48h248.97"/>
  </g>
  <g>
    <path class="st13" d="M60.08,171.03h108c11.6,0,21,9.4,21,21h0c0,11.6-9.4,21-21,21H60.08c-11.6,0-21-9.4-21-21h0c0-11.6,9.4-21,21-21Z"/>
    <g class="st3">
      <text class="st0" transform="translate(72.32 198.03)"><tspan x="0" y="0">GRAFICAS</tspan></text>
    </g>
    <path class="st13" d="M224.08,171.03h82c11.6,0,21,9.4,21,21h0c0,11.6-9.4,21-21,21h-82c-11.6,0-21-9.4-21-21h0c0-11.6,9.4-21,21-21Z"/>
    <g class="st3">
      <text class="st0" transform="translate(234.34 198.03)"><tspan x="0" y="0">EASING</tspan></text>
    </g>
    <path class="st13" d="M362.08,171.03h121c11.6,0,21,9.4,21,21h0c0,11.6-9.4,21-21,21h-121c-11.6,0-21-9.4-21-21h0c0-11.6,9.4-21,21-21h0Z"/>
    <g class="st3">
      <text class="st0" transform="translate(372.78 198.03)"><tspan x="0" y="0">KEYFRAMES</tspan></text>
    </g>
  </g>
  <g>
    <path class="st2" d="M860.07,371.92c38.98-34.72,75.44-212.87,114.42-212.87s75.44,178.15,114.42,212.87h-228.85Z"/>
    <path class="st12" d="M859.73,371.92c39.12-34.63,75.72-212.27,114.84-212.27s75.72,177.64,114.84,212.27"/>
    <path class="st9" d="M860.07,371.92h69.16"/>
    <path class="st9" d="M1019.76,371.92h69.16"/>
    <ellipse class="st8" cx="1019.76" cy="371.92" rx="5.53" ry="6.64"/>
    <ellipse class="st8" cx="931.06" cy="371.92" rx="5.53" ry="6.64"/>
  </g>
  <g>
    <rect class="st15" x="836.73" y="393.44" width="46" height="46" rx="11" ry="11"/>
    <g class="st3">
      <text class="st6" transform="translate(845.31 423.69)"><tspan x="0" y="0">Ae</tspan></text>
    </g>
  </g>
  <g class="st3">
    <text class="st5" transform="translate(888.03 432.25)"><tspan x="0" y="0">GraphEditor</tspan></text>
  </g>
</svg>