<?xml version="1.0" encoding="UTF-8"?>
<svg id="Capa_1" xmlns="http://www.w3.org/2000/svg" version="1.1" xmlns:xlink="http://www.w3.org/1999/xlink" viewBox="0 0 246 246">
  <!-- Generator: Adobe Illustrator 30.6.0, SVG Export Plug-In . SVG Version: 2.1.4 Build 109)  -->
  <defs>
    <style>
      .st0 {
        opacity: .08;
      }

      .st0, .st1 {
        isolation: isolate;
      }

      .st0, .st2 {
        fill: #ffe066;
      }

      .st3, .st1 {
        fill: none;
      }

      .st3, .st1, .st4 {
        stroke-linecap: round;
      }

      .st3, .st1, .st5 {
        stroke: #ffe066;
      }

      .st3, .st6 {
        stroke-width: 6px;
      }

      .st1 {
        opacity: .7;
        stroke-width: 3px;
      }

      .st4 {
        stroke: #fff;
        stroke-opacity: .55;
        stroke-width: 10px;
      }

      .st5 {
        fill: #161b24;
        stroke-linejoin: round;
        stroke-width: 5px;
      }

      .st6 {
        fill: url(#Degradado_sin_nombre);
        stroke: #a8c64b;
      }
    </style>
    <linearGradient id="Degradado_sin_nombre" data-name="Degradado sin nombre" x1="-814.54" y1="644.29" x2="-594.54" y2="424.29" gradientTransform="translate(199812 158952) scale(240 -240)" gradientUnits="userSpaceOnUse">
      <stop offset="0" stop-color="#15271c"/>
      <stop offset="1" stop-color="#252116"/>
    </linearGradient>
  </defs>
  <rect class="st6" x="3" y="3" width="240" height="240" rx="58" ry="58"/>
  <path class="st4" d="M46,212.38h154"/>
  <g>
    <g id="trash-can">
      <circle class="st0" cx="123" cy="123" r="93.2"/>
      <path class="st5" d="M69.23,61.66l10.75,139.79h86.03l10.75-139.79h-107.53Z"/>
      <path class="st3" d="M54.9,61.66h136.21"/>
      <path class="st2" d="M96.12,38.36h53.77c7.89,0,14.34,6.45,14.34,14.34v8.96h-82.44v-8.96c0-7.89,6.45-14.34,14.34-14.34Z"/>
      <path class="st1" d="M51.31,33.39l12.55,12.55M63.86,33.39l-12.55,12.55M192.9,164.22l10.75,10.75M203.65,164.22l-10.75,10.75"/>
    </g>
    <path class="st2" d="M128.67,78.14l-36.51,56.04h29.3l-9.34,43.31,36.94-61.56h-28.45s8.07-37.79,8.07-37.79Z"/>
  </g>
</svg>