<?xml version="1.0" encoding="UTF-8"?>
<svg id="Capa_1" xmlns="http://www.w3.org/2000/svg" version="1.1" xmlns:xlink="http://www.w3.org/1999/xlink" viewBox="0 0 1308.43 520">
  <!-- Generator: Adobe Illustrator 30.6.0, SVG Export Plug-In . SVG Version: 2.1.4 Build 109)  -->
  <defs>
    <style>
      .st0 {
        fill: url(#Degradado_sin_nombre_5);
      }

      .st1 {
        opacity: .78;
      }

      .st2 {
        stroke: #b895ff;
      }

      .st2, .st3 {
        fill: none;
        stroke-linecap: round;
        stroke-width: 8px;
      }

      .st4 {
        filter: url(#glow);
        isolation: isolate;
        opacity: .12;
      }

      .st5 {
        fill: #e9ffd0;
        stroke-width: 6px;
      }

      .st5, .st3 {
        stroke: #c9ff3d;
      }

      .st6 {
        fill: url(#Degradado_sin_nombre_4);
      }

      .st7 {
        fill: #c9ff3d;
      }

      .st8 {
        fill: url(#Degradado_sin_nombre_2);
      }

      .st9 {
        fill: #a88dff;
      }

      .st10 {
        fill: #091521;
      }

      .st11 {
        fill: #5ccfff;
      }

      .st12 {
        fill: #102333;
        stroke: #65dfff;
        stroke-opacity: .45;
        stroke-width: 2px;
      }

      .st13 {
        fill: url(#Degradado_sin_nombre_3);
      }

      .st14 {
        fill: url(#Degradado_sin_nombre);
      }

      .st15 {
        fill: #dff8ff;
      }

      .st16 {
        fill: #162e41;
        stroke: #75e5ff;
        stroke-opacity: .55;
        stroke-width: 5px;
      }

      .st17 {
        fill: #233c4c;
      }
    </style>
    <linearGradient id="Degradado_sin_nombre" data-name="Degradado sin nombre" x1="-358.7" y1="800.46" x2="-357.7" y2="799.46" gradientTransform="translate(430441 416241) scale(1200 -520)" gradientUnits="userSpaceOnUse">
      <stop offset="0" stop-color="#09111d"/>
      <stop offset=".55" stop-color="#0b2030"/>
      <stop offset="1" stop-color="#171339"/>
    </linearGradient>
    <filter id="glow">
      <feGaussianBlur stdDeviation="24"/>
    </filter>
    <linearGradient id="Degradado_sin_nombre_2" data-name="Degradado sin nombre 2" x1="-339.7" y1="796.33" x2="-339.7" y2="797.33" gradientTransform="translate(7557 56067) scale(20 -70)" gradientUnits="userSpaceOnUse">
      <stop offset="0" stop-color="#5edfff"/>
      <stop offset=".75" stop-color="#6d9cff"/>
      <stop offset="1" stop-color="#bc90ff"/>
    </linearGradient>
    <linearGradient id="Degradado_sin_nombre_3" data-name="Degradado sin nombre 3" x1="-339.7" y1="798.01" x2="-339.7" y2="799.01" gradientTransform="translate(7589 103267) scale(20 -129)" gradientUnits="userSpaceOnUse">
      <stop offset="0" stop-color="#5edfff"/>
      <stop offset=".75" stop-color="#6d9cff"/>
      <stop offset="1" stop-color="#bc90ff"/>
    </linearGradient>
    <linearGradient id="Degradado_sin_nombre_4" data-name="Degradado sin nombre 4" x1="-339.7" y1="798.5" x2="-339.7" y2="799.5" gradientTransform="translate(7621 136867) scale(20 -171)" gradientUnits="userSpaceOnUse">
      <stop offset="0" stop-color="#5edfff"/>
      <stop offset=".75" stop-color="#6d9cff"/>
      <stop offset="1" stop-color="#bc90ff"/>
    </linearGradient>
    <linearGradient id="Degradado_sin_nombre_5" data-name="Degradado sin nombre 5" x1="-339.7" y1="797.58" x2="-339.7" y2="798.58" gradientTransform="translate(7653 84867) scale(20 -106)" gradientUnits="userSpaceOnUse">
      <stop offset="0" stop-color="#5edfff"/>
      <stop offset=".75" stop-color="#6d9cff"/>
      <stop offset="1" stop-color="#bc90ff"/>
    </linearGradient>
  </defs>
  <rect class="st14" width="1200" height="520" rx="28" ry="28"/>
  <g class="st4">
    <ellipse class="st11" cx="978.43" cy="260.5" rx="275" ry="178"/>
  </g>
  <g>
    <rect class="st12" x="695.9" y="84" width="443" height="338" rx="30" ry="30"/>
    <rect class="st10" x="729.9" y="118" width="170" height="236" rx="22" ry="22"/>
    <g>
      <path class="st8" d="M762.9,254h0c5.52,0,10,4.48,10,10v50c0,5.52-4.48,10-10,10h0c-5.52,0-10-4.48-10-10v-50c0-5.52,4.48-10,10-10Z"/>
      <path class="st13" d="M794.9,195h0c5.52,0,10,4.48,10,10v109c0,5.52-4.48,10-10,10h0c-5.52,0-10-4.48-10-10v-109c0-5.52,4.48-10,10-10Z"/>
      <path class="st6" d="M826.9,153h0c5.52,0,10,4.48,10,10v151c0,5.52-4.48,10-10,10h0c-5.52,0-10-4.48-10-10v-151c0-5.52,4.48-10,10-10Z"/>
      <path class="st0" d="M858.9,218h0c5.52,0,10,4.48,10,10v86c0,5.52-4.48,10-10,10h0c-5.52,0-10-4.48-10-10v-86c0-5.52,4.48-10,10-10Z"/>
    </g>
    <g>
      <circle class="st16" cx="1016.9" cy="201" r="70"/>
      <path class="st15" d="M958.9,213.5h26l34,28v-80l-34,28h-26v24Z"/>
      <path class="st2" d="M1029.79,180.5c18,17,18,28,0,45M1044.79,164.5c28,28,28,49,0,77"/>
      <path class="st3" d="M926.92,324c56-38,67.03,35.84,123.03-7.16,34.83-16.59,55.94,6.09,72.94,14.09"/>
      <path class="st3" d="M925.22,294.34c56-38,67.03,35.84,123.03-7.16,34.83-16.59,55.94,6.09,72.94,14.09"/>
    </g>
    <path class="st17" d="M735.9,375h362c3.87,0,7,3.13,7,7h0c0,3.87-3.13,7-7,7h-362c-3.87,0-7-3.13-7-7h0c0-3.87,3.13-7,7-7Z"/>
    <path class="st7" d="M735.9,375h232c3.87,0,7,3.13,7,7h0c0,3.87-3.13,7-7,7h-232c-3.87,0-7-3.13-7-7h0c0-3.87,3.13-7,7-7Z"/>
    <circle class="st5" cx="974.9" cy="382" r="14"/>
  </g>
  <g class="st1">
    <circle class="st9" cx="634" cy="168" r="4"/>
    <circle class="st9" cx="615" cy="212" r="3"/>
    <circle class="st9" cx="650" cy="258" r="5"/>
  </g>
</svg>