<?xml version="1.0" encoding="UTF-8"?>
<svg id="Capa_1" xmlns="http://www.w3.org/2000/svg" version="1.1" xmlns:xlink="http://www.w3.org/1999/xlink" viewBox="0 0 246 246">
  <!-- Generator: Adobe Illustrator 30.6.0, SVG Export Plug-In . SVG Version: 2.1.4 Build 109)  -->
  <defs>
    <style>
      .st0 {
        fill: url(#Degradado_sin_nombre_6);
      }

      .st1 {
        fill: url(#Degradado_sin_nombre_5);
      }

      .st2 {
        fill: url(#Degradado_sin_nombre);
        stroke: #54bde8;
        stroke-width: 6px;
      }

      .st3 {
        fill: url(#Degradado_sin_nombre_4);
      }

      .st4 {
        fill: url(#Degradado_sin_nombre_2);
      }

      .st5 {
        fill: url(#Degradado_sin_nombre_7);
      }

      .st6 {
        fill: url(#Degradado_sin_nombre_3);
      }
    </style>
    <linearGradient id="Degradado_sin_nombre" data-name="Degradado sin nombre" x1="-813.72" y1="643.13" x2="-597.72" y2="423.13" gradientTransform="translate(199812 158952) scale(240 -240)" gradientUnits="userSpaceOnUse">
      <stop offset="0" stop-color="#102334"/>
      <stop offset="1" stop-color="#17162d"/>
    </linearGradient>
    <linearGradient id="Degradado_sin_nombre_2" data-name="Degradado sin nombre 2" x1="-719.6" y1="590.32" x2="-542.91" y2="414.82" gradientTransform="translate(12588 30233) scale(16 -46)" gradientUnits="userSpaceOnUse">
      <stop offset="0" stop-color="#61d7ff"/>
      <stop offset="1" stop-color="#9b86ff"/>
    </linearGradient>
    <linearGradient id="Degradado_sin_nombre_3" data-name="Degradado sin nombre 3" x1="-719.26" y1="595.14" x2="-542.57" y2="419.65" gradientTransform="translate(12616 66062) scale(16 -100)" gradientUnits="userSpaceOnUse">
      <stop offset="0" stop-color="#61d7ff"/>
      <stop offset="1" stop-color="#9b86ff"/>
    </linearGradient>
    <linearGradient id="Degradado_sin_nombre_4" data-name="Degradado sin nombre 4" x1="-718.92" y1="596.4" x2="-542.24" y2="420.91" gradientTransform="translate(12644 95256) scale(16 -144)" gradientUnits="userSpaceOnUse">
      <stop offset="0" stop-color="#61d7ff"/>
      <stop offset="1" stop-color="#9b86ff"/>
    </linearGradient>
    <linearGradient id="Degradado_sin_nombre_5" data-name="Degradado sin nombre 5" x1="-718.58" y1="593.7" x2="-541.9" y2="418.21" gradientTransform="translate(12672 48811) scale(16 -74)" gradientUnits="userSpaceOnUse">
      <stop offset="0" stop-color="#61d7ff"/>
      <stop offset="1" stop-color="#9b86ff"/>
    </linearGradient>
    <linearGradient id="Degradado_sin_nombre_6" data-name="Degradado sin nombre 6" x1="-718.25" y1="595.83" x2="-541.56" y2="420.33" gradientTransform="translate(12700 79332) scale(16 -120)" gradientUnits="userSpaceOnUse">
      <stop offset="0" stop-color="#61d7ff"/>
      <stop offset="1" stop-color="#9b86ff"/>
    </linearGradient>
    <linearGradient id="Degradado_sin_nombre_7" data-name="Degradado sin nombre 7" x1="-717.91" y1="588.98" x2="-541.22" y2="413.48" gradientTransform="translate(12728 26252) scale(16 -40)" gradientUnits="userSpaceOnUse">
      <stop offset="0" stop-color="#61d7ff"/>
      <stop offset="1" stop-color="#9b86ff"/>
    </linearGradient>
  </defs>
  <rect class="st2" x="3" y="3" width="240" height="240" rx="58" ry="58"/>
  <g>
    <path class="st4" d="M39.43,95.54h0c5.27,0,9.55,4.28,9.55,9.55v35.82c0,5.27-4.28,9.55-9.55,9.55h0c-5.27,0-9.55-4.28-9.55-9.55v-35.82c0-5.27,4.28-9.55,9.55-9.55Z"/>
    <path class="st6" d="M72.86,63.31h0c5.27,0,9.55,4.28,9.55,9.55v100.28c0,5.27-4.28,9.55-9.55,9.55h0c-5.27,0-9.55-4.28-9.55-9.55v-100.28c0-5.27,4.28-9.55,9.55-9.55Z"/>
    <path class="st3" d="M106.29,37.04h0c5.27,0,9.55,4.28,9.55,9.55v152.81c0,5.27-4.28,9.55-9.55,9.55h0c-5.27,0-9.55-4.28-9.55-9.55V46.59c0-5.27,4.28-9.55,9.55-9.55Z"/>
    <path class="st1" d="M139.71,78.83h0c5.27,0,9.55,4.28,9.55,9.55v69.24c0,5.27-4.28,9.55-9.55,9.55h0c-5.27,0-9.55-4.28-9.55-9.55v-69.24c0-5.27,4.28-9.55,9.55-9.55Z"/>
    <path class="st0" d="M173.14,51.37h0c5.27,0,9.55,4.28,9.55,9.55v124.16c0,5.27-4.28,9.55-9.55,9.55h0c-5.27,0-9.55-4.28-9.55-9.55V60.92c0-5.27,4.28-9.55,9.55-9.55Z"/>
    <path class="st5" d="M206.57,99.12h0c5.27,0,9.55,4.28,9.55,9.55v28.65c0,5.27-4.28,9.55-9.55,9.55h0c-5.27,0-9.55-4.28-9.55-9.55v-28.65c0-5.27,4.28-9.55,9.55-9.55Z"/>
  </g>
</svg>