<?xml version="1.0" encoding="UTF-8"?>
<svg id="Capa_1" xmlns="http://www.w3.org/2000/svg" version="1.1" xmlns:xlink="http://www.w3.org/1999/xlink" viewBox="0 0 1443.02 520">
  <!-- Generator: Adobe Illustrator 30.6.0, SVG Export Plug-In . SVG Version: 2.1.4 Build 109)  -->
  <defs>
    <style>
      .st0 {
        fill: #102328;
      }

      .st1 {
        fill: #5ea999;
      }

      .st2 {
        fill: #fff0a2;
      }

      .st3 {
        fill: #58e09d;
      }

      .st4 {
        fill: #c9ff3d;
      }

      .st5 {
        fill: #63e8ac;
      }

      .st6 {
        fill: #74bddf;
      }

      .st7 {
        fill: #142c30;
        stroke-opacity: .48;
      }

      .st7, .st8 {
        stroke: #5ce2a0;
        stroke-width: 2px;
      }

      .st9 {
        fill: #0c1f25;
      }

      .st10 {
        stroke: #fff0a2;
        stroke-linejoin: round;
        stroke-width: 7px;
      }

      .st10, .st8, .st11 {
        fill: none;
      }

      .st10, .st11, .st12 {
        stroke-linecap: round;
      }

      .st8 {
        isolation: isolate;
        opacity: .22;
      }

      .st13 {
        fill: #b8ffe0;
      }

      .st14 {
        fill: #ffd15b;
      }

      .st15 {
        fill: url(#Degradado_sin_nombre);
      }

      .st11 {
        stroke: #1a382c;
        stroke-width: 6px;
      }

      .st16 {
        stroke: #2c5152;
      }

      .st16, .st12 {
        stroke-width: 5px;
      }

      .st12 {
        stroke: #173122;
      }

      .st17 {
        fill: #4c9380;
      }
    </style>
    <linearGradient id="Degradado_sin_nombre" data-name="Degradado sin nombre" x1="-115.68" y1="800.46" x2="-114.68" y2="799.46" gradientTransform="translate(139055.6592 416241) scale(1200 -520)" gradientUnits="userSpaceOnUse">
      <stop offset="0" stop-color="#09161a"/>
      <stop offset=".55" stop-color="#0e292a"/>
      <stop offset="1" stop-color="#122235"/>
    </linearGradient>
  </defs>
  <rect class="st15" x="243.02" width="1200" height="520" rx="28" ry="28"/>
  <path class="st8" d="M.38,400.37c215.8-89,415.46-64,580.84-18,252.1,70,363.03-55,639.33-58"/>
  <g>
    <rect class="st7" x="987.84" y="72.37" width="394" height="367" rx="30" ry="30"/>
    <rect class="st9" x="1018.84" y="103.37" width="332" height="77" rx="17" ry="17"/>
    <circle class="st4" cx="1057.84" cy="141.37" r="20"/>
    <path class="st12" d="M1048.84,141.37h18M1057.84,132.37v18"/>
    <path class="st13" d="M1104.34,124.37h93c3.04,0,5.5,2.46,5.5,5.5h0c0,3.04-2.46,5.5-5.5,5.5h-93c-3.04,0-5.5-2.46-5.5-5.5h0c0-3.04,2.46-5.5,5.5-5.5Z"/>
    <path class="st1" d="M1102.84,148.37h143c2.21,0,4,1.79,4,4h0c0,2.21-1.79,4-4,4h-143c-2.21,0-4-1.79-4-4h0c0-2.21,1.79-4,4-4Z"/>
    <rect class="st0" x="1018.84" y="206.37" width="207" height="190" rx="20" ry="20"/>
    <path class="st16" d="M1050.34,363.37h151"/>
    <path class="st10" d="M1043.87,324.37l64-45,46,25,47.47-71.51"/>
    <rect class="st3" x="1059.64" y="285.37" width="27" height="69" rx="8" ry="8"/>
    <rect class="st4" x="1109.84" y="248.37" width="27" height="106" rx="8" ry="8"/>
    <rect class="st6" x="1161.34" y="267.01" width="27" height="87" rx="8" ry="8"/>
    <circle class="st2" cx="1158.84" cy="240.86" r="8"/>
    <rect class="st0" x="1245.84" y="206.37" width="105" height="190" rx="20" ry="20"/>
    <circle class="st14" cx="1298.84" cy="267.37" r="37"/>
    <path class="st11" d="M1298.84,237.87v59M1281.34,284c9,9,34,9,34-5,0-18-32-7-32-24,0-13,25-13,32-5"/>
    <path class="st5" d="M1270.34,331.37h57c3.04,0,5.5,2.46,5.5,5.5h0c0,3.04-2.46,5.5-5.5,5.5h-57c-3.04,0-5.5-2.46-5.5-5.5h0c0-3.04,2.46-5.5,5.5-5.5Z"/>
    <path class="st17" d="M1278.84,359.37h40c2.21,0,4,1.79,4,4h0c0,2.21-1.79,4-4,4h-40c-2.21,0-4-1.79-4-4h0c0-2.21,1.79-4,4-4Z"/>
  </g>
</svg>