<svg xmlns="http://www.w3.org/2000/svg" viewBox="0 0 256 256" role="img" aria-labelledby="t d">
  <title id="t">ClipDock Track</title><desc id="d">Proyectos, presupuestos y gastos</desc>
  <defs><linearGradient id="b" x1="18" y1="18" x2="238" y2="238"><stop stop-color="#11251f"/><stop offset="1" stop-color="#17202c"/></linearGradient><linearGradient id="c" x1="56" y1="47" x2="200" y2="213"><stop stop-color="#55e09a"/><stop offset="1" stop-color="#63c9ff"/></linearGradient></defs>
  <rect x="8" y="8" width="240" height="240" rx="58" fill="url(#b)" stroke="#45ad7c" stroke-width="6"/>
  <rect x="45" y="52" width="166" height="155" rx="22" fill="#1f3038" stroke="url(#c)" stroke-width="6"/>
  <path d="M45 95h166" stroke="#55e09a" stroke-width="8"/><path d="M80 67v25M128 67v25M176 67v25" stroke="#ffd15b" stroke-width="11" stroke-linecap="round"/>
  <rect x="76" y="131" width="22" height="49" rx="7" fill="#55e09a"/><rect x="116" y="145" width="22" height="35" rx="7" fill="#ffd15b"/><rect x="156" y="116" width="22" height="64" rx="7" fill="#64dfff"/>
  <circle cx="188" cy="192" r="30" fill="#ffd15b"/><path d="M188 176v32M177 184h18c8 0 8 9 0 9h-14c-8 0-8 9 0 9h18" fill="none" stroke="#18221e" stroke-width="7" stroke-linecap="round"/>
</svg>
