<?xml version="1.0" encoding="UTF-8"?>
<svg id="Capa_1" xmlns="http://www.w3.org/2000/svg" version="1.1" xmlns:xlink="http://www.w3.org/1999/xlink" viewBox="0 0 246 246">
  <!-- Generator: Adobe Illustrator 30.6.0, SVG Export Plug-In . SVG Version: 2.1.4 Build 109)  -->
  <defs>
    <style>
      .st0 {
        stroke: #55e09a;
        stroke-width: 8px;
      }

      .st1 {
        fill: #55e09a;
      }

      .st2 {
        fill: #1f3038;
        stroke: url(#Degradado_sin_nombre_2);
      }

      .st2, .st3 {
        stroke-width: 6px;
      }

      .st4 {
        fill: none;
        stroke: #18221e;
        stroke-width: 3px;
      }

      .st4, .st5 {
        stroke-linecap: round;
      }

      .st6 {
        fill: #ffd15b;
      }

      .st7 {
        fill: #64dfff;
      }

      .st5 {
        stroke: #ffd15b;
        stroke-width: 11px;
      }

      .st3 {
        fill: url(#Degradado_sin_nombre);
        stroke: #45ad7c;
      }
    </style>
    <linearGradient id="Degradado_sin_nombre" data-name="Degradado sin nombre" x1="-814.54" y1="644.29" x2="-594.54" y2="424.29" gradientTransform="translate(199812 158952) scale(240 -240)" gradientUnits="userSpaceOnUse">
      <stop offset="0" stop-color="#11251f"/>
      <stop offset="1" stop-color="#17202c"/>
    </linearGradient>
    <linearGradient id="Degradado_sin_nombre_2" data-name="Degradado sin nombre 2" x1="-783.65" y1="606.84" x2="-639.65" y2="440.84" gradientTransform="translate(137985 102556) scale(166 -155)" gradientUnits="userSpaceOnUse">
      <stop offset="0" stop-color="#55e09a"/>
      <stop offset="1" stop-color="#63c9ff"/>
    </linearGradient>
  </defs>
  <rect class="st3" x="3" y="3" width="240" height="240" rx="58" ry="58"/>
  <rect class="st2" x="40" y="47" width="166" height="155" rx="22" ry="22"/>
  <path class="st0" d="M40,90h166"/>
  <path class="st5" d="M75,62v14.66M123,62v14.66M171,62v14.66"/>
  <rect class="st1" x="71" y="126" width="22" height="49" rx="7" ry="7"/>
  <rect class="st6" x="111" y="140" width="22" height="35" rx="7" ry="7"/>
  <rect class="st7" x="151" y="111" width="22" height="64" rx="7" ry="7"/>
  <circle class="st6" cx="183" cy="187" r="30"/>
  <path class="st4" d="M187.66,207.02v-39.21M169.52,199.25h22.06c9.8,0,9.8-11.03,0-11.03h-17.16c-9.8,0-9.8-11.03,0-11.03h22.06M179.52,207.02v-39.21"/>
</svg>