<?xml version="1.0" encoding="UTF-8"?>
<svg id="Capa_1" xmlns="http://www.w3.org/2000/svg" version="1.1" xmlns:xlink="http://www.w3.org/1999/xlink" viewBox="0 0 1320.39 870">
  <!-- Generator: Adobe Illustrator 30.6.0, SVG Export Plug-In . SVG Version: 2.1.4 Build 109)  -->
  <defs>
    <style>
      .st0 {
        fill: #ffb3c3;
      }

      .st0, .st1, .st2, .st3, .st4, .st5, .st6, .st7, .st8, .st9, .st10 {
        isolation: isolate;
      }

      .st0, .st1, .st4, .st8, .st9 {
        font-family: Arial-BoldMT, Arial;
        font-weight: 700;
      }

      .st0, .st4, .st9 {
        font-size: 10.48px;
      }

      .st0, .st9 {
        letter-spacing: .13em;
      }

      .st1 {
        fill: #f5f2ee;
        font-size: 48.7px;
      }

      .st11 {
        fill: #291a30;
        stroke: #7d405d;
      }

      .st2 {
        fill: #11101a;
        opacity: .96;
        stroke: #514577;
      }

      .st2, .st7 {
        stroke-width: 2px;
      }

      .st12 {
        fill: #5cf0fc;
      }

      .st3 {
        fill: #7c5cfc;
        opacity: .18;
      }

      .st4 {
        fill: #c8beff;
        letter-spacing: .13em;
      }

      .st5 {
        opacity: .16;
      }

      .st5, .st13 {
        fill: #fc5c7d;
      }

      .st14 {
        fill: #211d42;
        stroke: #564c9d;
      }

      .st15 {
        fill: red;
        stroke: #39334f;
      }

      .st16 {
        fill: url(#Degradado_sin_nombre);
      }

      .st6 {
        fill: #bab5ce;
        font-family: ArialMT, Arial;
      }

      .st6, .st8 {
        font-size: 22px;
      }

      .st7 {
        opacity: .5;
        stroke: url(#Degradado_sin_nombre_2);
      }

      .st7, .st10 {
        fill: none;
      }

      .st17 {
        fill: #1d2930;
        stroke: #3e6a7c;
      }

      .st8 {
        letter-spacing: .23em;
      }

      .st8, .st18 {
        fill: #9a88ff;
      }

      .st9 {
        fill: #a9e8f5;
      }

      .st10 {
        opacity: .12;
        stroke: #fff;
      }

      .st19 {
        fill: #fcb05c;
      }
    </style>
    <linearGradient id="Degradado_sin_nombre" data-name="Degradado sin nombre" x1=".39" y1="712" x2="1200.39" y2="192" gradientTransform="translate(0 902) scale(1 -1)" gradientUnits="userSpaceOnUse">
      <stop offset="0" stop-color="#100e1c"/>
      <stop offset=".55" stop-color="#16142c"/>
      <stop offset="1" stop-color="#291323"/>
    </linearGradient>
    <linearGradient id="Degradado_sin_nombre_2" data-name="Degradado sin nombre 2" x1="41.26" y1="590.87" x2="1098.26" y2="236.87" gradientTransform="translate(0 902) scale(1 -1)" gradientUnits="userSpaceOnUse">
      <stop offset="0" stop-color="#9a88ff"/>
      <stop offset="1" stop-color="#fc5c7d"/>
    </linearGradient>
  </defs>
  <rect class="st16" x=".39" y="190" width="1200" height="520" rx="28" ry="28"/>
  <circle class="st3" cx="1000.39" cy="230" r="230"/>
  <circle class="st5" cx="1110.39" cy="660" r="210"/>
  <path class="st7" d="M.39,628c222-93,302-23,505-88,196-63,280-194,695-171"/>
  <path class="st10" d="M.39,648c222-93,302-23,505-88,196-63,280-194,695-171"/>
  <text class="st8" transform="translate(784.17 660)"><tspan x="0" y="0">AFTER EFFECTS SCRIPTUI</tspan></text>
  <text class="st1" transform="translate(850.39 614.69)"><tspan x="0" y="0">Labels PRO</tspan></text>
  <text class="st6" transform="translate(33.87 239.25)"><tspan x="0" y="0">Cambia el color de varias capas con un clic.</tspan></text>
  <g>
    <path class="st14" d="M47.7,258.45h89.42c8.49,0,15.37,6.88,15.37,15.37h0c0,8.49-6.88,15.37-15.37,15.37H47.7c-8.49,0-15.37-6.88-15.37-15.37h0c0-8.49,6.88-15.37,15.37-15.37Z"/>
    <text class="st4" transform="translate(52.23 278.01)"><tspan x="0" y="0">16 COLORES</tspan></text>
    <path class="st11" d="M177.63,258.45h106.18c8.49,0,15.37,6.88,15.37,15.37h0c0,8.49-6.88,15.37-15.37,15.37h-106.18c-8.49,0-15.37-6.88-15.37-15.37h0c0-8.49,6.88-15.37,15.37-15.37Z"/>
    <text class="st0" transform="translate(183.53 278.01)"><tspan x="0" y="0">VARIAS CAPAS</tspan></text>
    <path class="st17" d="M324.34,258.45h78.24c8.49,0,15.37,6.88,15.37,15.37h0c0,8.49-6.88,15.37-15.37,15.37h-78.24c-8.49,0-15.37-6.88-15.37-15.37h0c0-8.49,6.88-15.37,15.37-15.37Z"/>
    <text class="st9" transform="translate(333.42 278.01)"><tspan x="0" y="0">SCRIPTUI</tspan></text>
  </g>
  <g>
    <rect class="st2" x="861.03" y="283.95" width="270" height="272" rx="18" ry="18"/>
    <g>
      <rect class="st15" x="906.08" y="319.01" width="128.41" height="40.67" rx="9" ry="9"/>
      <g>
        <rect class="st18" x="877.22" y="362.62" width="237.61" height="36.39" rx="8" ry="8"/>
        <rect class="st13" x="935.85" y="404.98" width="178.99" height="36.39" rx="8" ry="8"/>
        <rect class="st12" x="877.22" y="442.8" width="181.78" height="36.39" rx="8" ry="8"/>
        <rect class="st19" x="943.11" y="484.49" width="171.73" height="36.39" rx="8" ry="8"/>
      </g>
    </g>
  </g>
</svg>