<svg xmlns="http://www.w3.org/2000/svg" viewBox="0 0 256 256" role="img" aria-labelledby="title desc">
  <title id="title">Labels PRO</title>
  <desc id="desc">Icono de Labels PRO para cambiar colores de etiquetas en After Effects</desc>
  <defs>
    <linearGradient id="bg" x1="18" y1="18" x2="238" y2="238" gradientUnits="userSpaceOnUse"><stop stop-color="#17132f"/><stop offset="1" stop-color="#241326"/></linearGradient>
    <linearGradient id="labels" x1="48" y1="58" x2="205" y2="198" gradientUnits="userSpaceOnUse"><stop stop-color="#9a88ff"/><stop offset="1" stop-color="#fc5c7d"/></linearGradient>
  </defs>
  <rect x="8" y="8" width="240" height="240" rx="58" fill="url(#bg)" stroke="#493d78" stroke-width="6"/>
  <path d="M128 43c-47 0-85 34-85 77 0 36 27 65 61 65h11c9 0 14-11 9-19-9-14 2-29 19-29h19c28 0 50-22 50-49 0-26-31-45-84-45Z" fill="url(#labels)" opacity=".98"/>
  <circle cx="83" cy="104" r="11" fill="#fff" opacity=".96"/><circle cx="119" cy="81" r="11" fill="#fff" opacity=".96"/><circle cx="157" cy="84" r="11" fill="#fff" opacity=".96"/><circle cx="184" cy="112" r="11" fill="#fff" opacity=".96"/>
  <path d="m72 185 26-26 19 19 35-35 28 28" fill="none" stroke="#fff" stroke-width="10" stroke-linecap="round" stroke-linejoin="round" opacity=".95"/>
</svg>
