<svg xmlns="http://www.w3.org/2000/svg" viewBox="0 0 1200 520" role="img" aria-labelledby="title desc">
  <title id="title">MediaVault</title><desc id="desc">Biblioteca de archivos visuales con búsqueda rápida.</desc>
  <defs>
    <linearGradient id="bg" x1="0" y1="0" x2="1" y2="1"><stop stop-color="#091018"/><stop offset=".55" stop-color="#0c202b"/><stop offset="1" stop-color="#101735"/></linearGradient>
    <linearGradient id="panel" x1="0" y1="0" x2="1" y2="1"><stop stop-color="#193646"/><stop offset="1" stop-color="#0d1727"/></linearGradient>
    <filter id="blur"><feGaussianBlur stdDeviation="21"/></filter>
  </defs>
  <rect width="1200" height="520" rx="28" fill="url(#bg)"/>
  <ellipse cx="962" cy="238" rx="255" ry="190" fill="#5bdfff" opacity=".13" filter="url(#blur)"/>
  <path d="M582 396C739 281 876 432 1200 256" fill="none" stroke="#62e1ff" stroke-width="2" opacity=".18"/>
  <g transform="translate(708 63)">
    <rect width="386" height="354" rx="31" fill="url(#panel)" stroke="#64ddff" stroke-opacity=".5" stroke-width="2"/>
    <rect x="32" y="31" width="322" height="52" rx="15" fill="#0b1925" stroke="#64ddff" stroke-opacity=".35"/>
    <circle cx="63" cy="57" r="10" fill="none" stroke="#8be9ff" stroke-width="4"/><path d="m70 64 10 10" stroke="#8be9ff" stroke-width="4" stroke-linecap="round"/>
    <rect x="32" y="108" width="96" height="94" rx="15" fill="#3e8da4"/><path d="m43 184 26-33 19 20 15-15 18 28z" fill="#9cf3c1"/>
    <rect x="145" y="108" width="96" height="94" rx="15" fill="#5262a4"/><circle cx="193" cy="153" r="26" fill="#e1b2ff"/><path d="m180 164 13-20 13 20z" fill="#18213d"/>
    <rect x="258" y="108" width="96" height="94" rx="15" fill="#315161"/><path d="M272 183h69l-24-42-19 26-12-15z" fill="#75dfff"/>
    <rect x="32" y="221" width="96" height="94" rx="15" fill="#24465a"/><rect x="145" y="221" width="96" height="94" rx="15" fill="#6551a4"/><rect x="258" y="221" width="96" height="94" rx="15" fill="#3e7f68"/>
    <path d="M54 271h52M167 271h52M280 271h52" stroke="#d8f7ff" stroke-opacity=".76" stroke-width="9" stroke-linecap="round"/>
    <circle cx="349" cy="330" r="36" fill="#c9ff3d"/><path d="M336 330h26M349 317v26" stroke="#152424" stroke-width="7" stroke-linecap="round"/>
  </g>
</svg>
