<?xml version="1.0" encoding="UTF-8"?>
<svg id="Capa_1" xmlns="http://www.w3.org/2000/svg" version="1.1" xmlns:xlink="http://www.w3.org/1999/xlink" viewBox="0 0 2147.48 1600.08">
  <!-- Generator: Adobe Illustrator 30.6.0, SVG Export Plug-In . SVG Version: 2.1.4 Build 109)  -->
  <defs>
    <style>
      .st0 {
        fill: #24465a;
      }

      .st1 {
        fill: #315161;
      }

      .st2 {
        fill: #5bdfff;
        opacity: .13;
      }

      .st2, .st3 {
        isolation: isolate;
      }

      .st4 {
        fill: #3e8da4;
      }

      .st5 {
        fill: #75dfff;
      }

      .st6 {
        stroke: #152424;
        stroke-width: 7px;
      }

      .st6, .st7, .st8 {
        stroke-linecap: round;
      }

      .st7, .st9 {
        stroke: #8be9ff;
        stroke-width: 4px;
      }

      .st10 {
        fill: #c9ff3d;
      }

      .st11 {
        fill: #0b1925;
        stroke-opacity: .35;
      }

      .st11, .st12 {
        stroke: #64ddff;
      }

      .st13 {
        fill: #6551a4;
      }

      .st9, .st3 {
        fill: none;
      }

      .st14 {
        fill: #5262a4;
      }

      .st15 {
        fill: url(#Degradado_sin_nombre);
      }

      .st16 {
        fill: #e1b2ff;
      }

      .st17 {
        fill: #3e7f68;
      }

      .st3 {
        opacity: .18;
        stroke: #62e1ff;
      }

      .st3, .st8 {
        stroke-width: 9px;
      }

      .st18 {
        fill: #18213d;
      }

      .st8 {
        stroke: #d8f7ff;
        stroke-opacity: .76;
      }

      .st19 {
        fill: #9cf3c1;
      }

      .st12 {
        fill: url(#Degradado_sin_nombre_2);
        stroke-opacity: .5;
        stroke-width: 2px;
      }
    </style>
    <linearGradient id="Degradado_sin_nombre" data-name="Degradado sin nombre" x1="-178.88" y1="1360.5" x2="-177.88" y2="1359.5" gradientTransform="translate(214839.9478 708022.3197) scale(1200 -520)" gradientUnits="userSpaceOnUse">
      <stop offset="0" stop-color="#091018"/>
      <stop offset=".55" stop-color="#0c202b"/>
      <stop offset="1" stop-color="#101735"/>
    </linearGradient>
    <linearGradient id="Degradado_sin_nombre_2" data-name="Degradado sin nombre 2" x1="-178.31" y1="1360.29" x2="-177.14" y2="1359.12" gradientTransform="translate(69693.3043 482152.5269) scale(386 -354)" gradientUnits="userSpaceOnUse">
      <stop offset="0" stop-color="#193646"/>
      <stop offset="1" stop-color="#0d1727"/>
    </linearGradient>
  </defs>
  <rect class="st15" x="179.82" y="560.04" width="1200" height="520" rx="28" ry="28"/>
  <ellipse class="st2" cx="1073.74" cy="800.04" rx="1073.74" ry="800.04"/>
  <path class="st3" d="M66.38,961.04c341.31-115,639.14,36,1343.5-140"/>
  <g>
    <rect class="st12" x="866.57" y="612.15" width="447.27" height="410.19" rx="31" ry="31"/>
    <rect class="st11" x="903.65" y="648.07" width="373.11" height="60.25" rx="15" ry="15"/>
    <circle class="st9" cx="939.57" cy="678.2" r="11.59"/>
    <path class="st7" d="M947.68,686.31l11.59,11.59"/>
    <rect class="st4" x="903.65" y="737.29" width="111.24" height="108.92" rx="15" ry="15"/>
    <path class="st19" d="M916.4,825.36l30.13-38.24,22.02,23.17,17.38-17.38,20.86,32.44h-90.38Z"/>
    <rect class="st14" x="1034.59" y="737.29" width="111.24" height="108.92" rx="15" ry="15"/>
    <circle class="st16" cx="1090.21" cy="791.75" r="30.13"/>
    <path class="st18" d="M1082.79,776.69l23.17,15.06-23.17,15.06v-30.13Z"/>
    <rect class="st1" x="1165.53" y="737.29" width="111.24" height="108.92" rx="15" ry="15"/>
    <path class="st5" d="M1181.75,824.2h79.95l-27.81-48.67-22.02,30.13-13.9-17.38-16.22,35.92Z"/>
    <rect class="st0" x="903.65" y="868.23" width="111.24" height="108.92" rx="15" ry="15"/>
    <rect class="st13" x="1034.59" y="868.23" width="111.24" height="108.92" rx="15" ry="15"/>
    <rect class="st17" x="1165.53" y="868.23" width="111.24" height="108.92" rx="15" ry="15"/>
    <path class="st8" d="M929.15,926.17h60.25M1060.08,926.17h60.25M1191.02,926.17h60.25"/>
    <circle class="st10" cx="1292.99" cy="1002.76" r="41.71"/>
    <path class="st6" d="M1277.92,1002.76h30.13M1292.99,987.69v30.13"/>
  </g>
</svg>