<?xml version="1.0" encoding="UTF-8"?>
<svg id="Capa_1" xmlns="http://www.w3.org/2000/svg" version="1.1" xmlns:xlink="http://www.w3.org/1999/xlink" viewBox="0 0 246 246">
  <!-- Generator: Adobe Illustrator 30.6.0, SVG Export Plug-In . SVG Version: 2.1.4 Build 109)  -->
  <defs>
    <style>
      .st0 {
        fill: url(#Degradado_sin_nombre);
        stroke: #45a9ba;
        stroke-width: 6px;
      }

      .st1 {
        fill: #63dfff;
      }

      .st2 {
        stroke: #d9ffff;
        stroke-linecap: round;
        stroke-opacity: .65;
      }

      .st2, .st3 {
        stroke-width: 7px;
      }

      .st4 {
        fill: #74f0a2;
      }

      .st5 {
        fill: #12242c;
        stroke: #63dfff;
        stroke-width: 8px;
      }

      .st6 {
        fill: #e1b2ff;
      }

      .st3 {
        fill: #1b313b;
        stroke: url(#Degradado_sin_nombre_2);
      }

      .st7 {
        fill: #18213d;
      }
    </style>
    <linearGradient id="Degradado_sin_nombre" data-name="Degradado sin nombre" x1="-814.54" y1="644.29" x2="-594.54" y2="424.29" gradientTransform="translate(199812 158952) scale(240 -240)" gradientUnits="userSpaceOnUse">
      <stop offset="0" stop-color="#10242c"/>
      <stop offset="1" stop-color="#15202c"/>
    </linearGradient>
    <linearGradient id="Degradado_sin_nombre_2" data-name="Degradado sin nombre 2" x1="-780.63" y1="609" x2="-626.63" y2="449" gradientTransform="translate(141327 101891) scale(170 -154)" gradientUnits="userSpaceOnUse">
      <stop offset="0" stop-color="#63dfff"/>
      <stop offset="1" stop-color="#74f0a2"/>
    </linearGradient>
  </defs>
  <rect class="st0" x="3" y="3" width="240" height="240" rx="58" ry="58"/>
  <rect class="st3" x="38" y="31.6" width="170" height="154" rx="25" ry="25"/>
  <circle class="st5" cx="123" cy="108.6" r="52"/>
  <path class="st2" d="M123.03,38.6v34.21M123.03,144.38v34.23M45.19,108.6h41.92M158.81,108.6h41.92"/>
  <path class="st4" d="M108.73,89.65l37.58,21.14-37.58,21.14v-42.28Z"/>
  <path class="st1" d="M56.13,202.03h137.56c5.21,0,9.44,3.13,9.44,7h0c0,3.87-4.23,7-9.44,7H56.13c-5.21,0-9.44-3.13-9.44-7h0c0-3.87,4.23-7,9.44-7Z"/>
  <circle class="st6" cx="123" cy="109.79" r="30.13"/>
  <path class="st7" d="M115.38,94.73l23.17,15.06-23.17,15.06v-30.13Z"/>
</svg>