<?xml version="1.0" encoding="UTF-8"?>
<svg id="Capa_1" xmlns="http://www.w3.org/2000/svg" version="1.1" xmlns:xlink="http://www.w3.org/1999/xlink" viewBox="0 0 246 246">
  <!-- Generator: Adobe Illustrator 30.6.0, SVG Export Plug-In . SVG Version: 2.1.4 Build 109)  -->
  <defs>
    <style>
      .st0 {
        fill: #ff6b78;
      }

      .st1 {
        fill: #7de09d;
      }

      .st2 {
        fill: url(#Degradado_sin_nombre_2);
      }

      .st3 {
        fill: url(#Degradado_sin_nombre);
        stroke: #d69a48;
        stroke-width: 6px;
      }

      .st4 {
        fill: #efae6e;
      }

      .st5 {
        fill: #7faadd;
      }

      .st6 {
        fill: #64dfff;
      }

      .st7 {
        fill: #7f85dd;
      }

      .st8 {
        fill: none;
        stroke: #fff;
        stroke-linecap: round;
        stroke-linejoin: round;
        stroke-width: 11px;
      }
    </style>
    <linearGradient id="Degradado_sin_nombre" data-name="Degradado sin nombre" x1="-814.54" y1="644.29" x2="-594.54" y2="424.29" gradientTransform="translate(199812 158952) scale(240 -240)" gradientUnits="userSpaceOnUse">
      <stop offset="0" stop-color="#2d1e15"/>
      <stop offset="1" stop-color="#23152a"/>
    </linearGradient>
    <linearGradient id="Degradado_sin_nombre_2" data-name="Degradado sin nombre 2" x1="-830.59" y1="660.53" x2="-830.59" y2="660.53" gradientTransform="translate(150519 99227) scale(181 -150)" gradientUnits="userSpaceOnUse">
      <stop offset="0" stop-color="#ffd45c"/>
      <stop offset="1" stop-color="#ff6f91"/>
    </linearGradient>
  </defs>
  <rect class="st3" x="3" y="3" width="240" height="240" rx="58" ry="58"/>
  <path class="st4" d="M131.28,37.67c10.5,8.13,14.31,21.71,14.8,25.28.24,1.76.45,3.95.45,3.95.14,3.34-.43,4.92.49,8.37,2.95,11.01,14.69,16.11,21.86,19.98,3.69,1.99,44.06-2.35,43.01,42.3-.51,21.34-18.58,41.9-24.21,47-25.52,23.15-57.48,22.03-64.39,21.62-4.99-.3-38.67-2.85-62.98-30.55-28.06-31.98-29.62-81.39-8.46-112.67,2.74-4.06,17.2-25.43,43.14-30.66,6.58-1.33,23.29-4.7,36.3,5.38Z"/>
  <path class="st2" d="M182.66,146.76"/>
  <path class="st8" d="M132.64,98.67c-3.9,1.96-7.25,4.18-7.21,6.16.13,5.18,23.67,7.04,24.39,3.91.31-1.36-3.57-4.22-17.18-10.07Z"/>
  <circle class="st0" cx="69.77" cy="105.98" r="19.37"/>
  <circle class="st6" cx="96.56" cy="62.95" r="19.37"/>
  <circle class="st5" cx="137.64" cy="171.71" r="19.37"/>
  <circle class="st7" cx="182.21" cy="142.76" r="19.37"/>
  <circle class="st1" cx="86.33" cy="154.81" r="19.37"/>
</svg>