<?xml version="1.0" encoding="UTF-8"?>
<svg id="Capa_1" xmlns="http://www.w3.org/2000/svg" version="1.1" xmlns:xlink="http://www.w3.org/1999/xlink" viewBox="0 0 1291.08 520">
  <!-- Generator: Adobe Illustrator 30.6.0, SVG Export Plug-In . SVG Version: 2.1.4 Build 109)  -->
  <defs>
    <style>
      .st0 {
        fill: #63547f;
      }

      .st1 {
        fill: #17231a;
      }

      .st1, .st2, .st3 {
        stroke-width: 2px;
      }

      .st1, .st4 {
        stroke: #c9ff3d;
      }

      .st1, .st3 {
        stroke-opacity: .62;
      }

      .st5 {
        fill: #263d1c;
      }

      .st6, .st7 {
        fill: #c9ff3d;
      }

      .st8 {
        fill: #332956;
      }

      .st2 {
        opacity: .22;
      }

      .st2, .st9 {
        fill: none;
      }

      .st2, .st9, .st3 {
        stroke: #a793ff;
      }

      .st2, .st10, .st7 {
        isolation: isolate;
      }

      .st4, .st9 {
        stroke-linecap: round;
        stroke-width: 8px;
      }

      .st10 {
        fill: #b8a3ff;
        font-family: Arial-BoldMT, Arial;
        font-size: 44px;
        font-weight: 700;
      }

      .st11 {
        fill: url(#Degradado_sin_nombre);
      }

      .st7 {
        opacity: .12;
      }

      .st12 {
        fill: #547542;
      }

      .st3 {
        fill: #211b36;
      }
    </style>
    <linearGradient id="Degradado_sin_nombre" data-name="Degradado sin nombre" x1="-318.82" y1="798.96" x2="-317.82" y2="797.96" gradientTransform="translate(382625.6984 415459.5) scale(1200 -520)" gradientUnits="userSpaceOnUse">
      <stop offset="0" stop-color="#0d120b"/>
      <stop offset=".55" stop-color="#1b2510"/>
      <stop offset="1" stop-color="#191533"/>
    </linearGradient>
  </defs>
  <rect class="st11" x="39.88" width="1200" height="520" rx="28" ry="28"/>
  <ellipse class="st7" cx="864.61" cy="247.23" rx="338.59" ry="225.72"/>
  <path class="st2" d="M.31,509.88c307.71-99,456.6-115,671-43,208.45,70,403,21,619.38-71"/>
  <g>
    <rect class="st1" x="635.71" y="114.23" width="166" height="266" rx="28" ry="28"/>
    <rect class="st3" x="960.81" y="114.23" width="166" height="266" rx="28" ry="28"/>
    <rect class="st5" x="677.71" y="141.73" width="82" height="82" rx="19.27" ry="19.27"/>
    <path class="st9" d="M874.26,179.23c34,31,34,91,0,122M894.26,149.23c54,49,54,133,0,182"/>
    <rect class="st8" x="1002.81" y="159.23" width="82" height="82" rx="20" ry="20"/>
    <path class="st12" d="M678.71,240.23h80c3.87,0,7,3.13,7,7h0c0,3.87-3.13,7-7,7h-80c-3.87,0-7-3.13-7-7h0c0-3.87,3.13-7,7-7Z"/>
    <path class="st0" d="M1003.81,271.23h80c3.87,0,7,3.13,7,7h0c0,3.87-3.13,7-7,7h-80c-3.87,0-7-3.13-7-7h0c0-3.87,3.13-7,7-7Z"/>
    <path class="st6" d="M842.86,215.23l36,26-36,26v-52Z"/>
    <rect class="st5" x="677.71" y="271.23" width="82" height="82" rx="20" ry="20"/>
    <path class="st4" d="M697.71,182.73h42M718.71,161.73v42M697.71,312.23h42"/>
  </g>
  <text class="st10" transform="translate(1020.3896 214.2308)"><tspan x="0" y="0">Pr</tspan></text>
</svg>