<?xml version="1.0" encoding="UTF-8"?>
<svg id="Capa_1" xmlns="http://www.w3.org/2000/svg" version="1.1" xmlns:xlink="http://www.w3.org/1999/xlink" viewBox="0 0 1200.33 520">
  <!-- Generator: Adobe Illustrator 30.6.0, SVG Export Plug-In . SVG Version: 2.1.4 Build 109)  -->
  <defs>
    <style>
      .st0 {
        fill: #63547f;
      }

      .st1 {
        fill: #17231a;
      }

      .st1, .st2, .st3 {
        stroke-width: 2px;
      }

      .st1, .st4 {
        stroke: #c9ff3d;
      }

      .st1, .st3 {
        stroke-opacity: .62;
      }

      .st5 {
        fill: #263d1c;
      }

      .st6 {
        stroke: url(#Degradado_sin_nombre_3);
      }

      .st6, .st7 {
        stroke-linejoin: round;
      }

      .st6, .st7, .st2, .st8 {
        fill: none;
      }

      .st6, .st7, .st4, .st8 {
        stroke-linecap: round;
        stroke-width: 8px;
      }

      .st7 {
        stroke: url(#Degradado_sin_nombre_2);
      }

      .st9 {
        fill: #c9ff3d;
      }

      .st10 {
        fill: #332956;
      }

      .st11, .st2, .st12 {
        isolation: isolate;
      }

      .st2 {
        opacity: .22;
      }

      .st2, .st8, .st3 {
        stroke: #a793ff;
      }

      .st12 {
        fill: #b8a3ff;
        font-family: Arial-BoldMT, Arial;
        font-size: 44px;
        font-weight: 700;
      }

      .st13 {
        fill: url(#Degradado_sin_nombre);
      }

      .st3 {
        fill: #211b36;
      }
    </style>
    <linearGradient id="Degradado_sin_nombre" data-name="Degradado sin nombre" x1="-674.21" y1="2.58" x2="-673.21" y2="3.58" gradientTransform="translate(809058.0014 -1339.5) scale(1200 520)" gradientUnits="userSpaceOnUse">
      <stop offset="0" stop-color="#0d120b"/>
      <stop offset=".55" stop-color="#1b2510"/>
      <stop offset="1" stop-color="#191533"/>
    </linearGradient>
    <linearGradient id="Degradado_sin_nombre_2" data-name="Degradado sin nombre 2" x1="-344.18" y1="799.37" x2="-344.18" y2="799.1" gradientTransform="translate(36820.6341 132859) scale(104 -166)" gradientUnits="userSpaceOnUse">
      <stop offset="0" stop-color="#d6ff5a"/>
      <stop offset="1" stop-color="#a6e02a"/>
    </linearGradient>
    <linearGradient id="Degradado_sin_nombre_3" data-name="Degradado sin nombre 3" x1="-344.59" y1="799.25" x2="-344.59" y2="798.98" gradientTransform="translate(36894.6341 132861) scale(104 -166)" gradientUnits="userSpaceOnUse">
      <stop offset="0" stop-color="#b7a6ff"/>
      <stop offset="1" stop-color="#8a72f0"/>
    </linearGradient>
  </defs>
  <rect class="st13" x=".33" width="1200" height="520" rx="28" ry="28"/>
  <path class="st2" d="M.33,509.88c285.42-99,423.52-115,622.39-43,193.35,70,373.8,21,574.51-71"/>
  <g>
    <rect class="st1" x="958.69" y="119.75" width="166" height="266" rx="28" ry="28"/>
    <path class="st8" d="M860.32,191.75c34,31,34,91,0,122M880.32,161.75c54,49,54,133,0,182"/>
    <path class="st9" d="M1028.37,295.74l36,26-36,26v-52h0Z"/>
    <g>
      <rect class="st3" x="656.45" y="120.75" width="166" height="266" rx="28" ry="28"/>
      <rect class="st10" x="698.45" y="165.75" width="82" height="82" rx="20" ry="20"/>
      <path class="st0" d="M699.45,277.75h80c3.87,0,7,3.13,7,7h0c0,3.87-3.13,7-7,7h-80c-3.87,0-7-3.13-7-7h0c0-3.87,3.13-7,7-7h0Z"/>
      <rect class="st5" x="679.97" y="307.75" width="56.99" height="56.99" rx="11.62" ry="11.62"/>
      <g class="st11">
        <text class="st12" transform="translate(716.03 220.75)"><tspan x="0" y="0">Pr</tspan></text>
      </g>
      <rect class="st5" x="741.94" y="307.75" width="56.99" height="56.99" rx="11.62" ry="11.62"/>
      <path class="st4" d="M693.96,336.25h29.01M708.47,321.74v29.01M751.24,337.75h38.39"/>
    </g>
    <g>
      <path class="st7" d="M1006,218.27h24.07l16.3-64.44h-24.07l-16.3,64.44Z"/>
      <path class="st6" d="M1037.01,240.23h24.07l16.3-64.44h-24.07l-16.3,64.44Z"/>
    </g>
  </g>
</svg>